<?xml version="1.0" standalone="no"?>
<!DOCTYPE svg PUBLIC "-//W3C//DTD SVG 20010904//EN"
 "http://www.w3.org/TR/2001/REC-SVG-20010904/DTD/svg10.dtd">
<svg version="1.0" xmlns="http://www.w3.org/2000/svg"
 width="300.000000pt" height="300.000000pt" viewBox="0 0 300.000000 300.000000"
 preserveAspectRatio="xMidYMid meet">
<metadata>
Created by potrace 1.10, written by Peter Selinger 2001-2011
</metadata>
<g transform="translate(0.000000,300.000000) scale(0.100000,-0.100000)"
fill="#000000" stroke="none">
<path d="M1307 2545 c-351 -67 -649 -303 -788 -625 -66 -153 -83 -243 -83
-425 0 -140 4 -172 27 -257 101 -378 396 -674 763 -768 445 -114 906 59 1162
437 142 210 206 480 171 729 -33 238 -133 438 -304 609 -144 145 -298 233
-495 285 -111 29 -339 36 -453 15z m300 -26 c334 -37 620 -221 787 -507 178
-302 182 -699 11 -1009 -136 -247 -383 -435 -661 -505 -127 -32 -360 -32 -487
0 -307 77 -559 282 -691 563 -65 137 -88 237 -93 400 -6 168 8 258 61 401 98
262 323 490 579 589 178 68 319 88 494 68z"/>
<path d="M1372 2470 c-214 -30 -397 -119 -554 -268 -175 -167 -275 -373 -297
-612 -41 -442 222 -858 637 -1010 238 -87 507 -78 742 23 262 113 468 352 550
637 31 106 39 325 16 439 -77 381 -352 673 -723 767 -107 27 -273 38 -371 24z
m391 -64 c159 -48 276 -116 396 -230 91 -88 150 -169 200 -278 197 -419 59
-921 -323 -1181 -86 -58 -211 -114 -312 -139 -127 -31 -323 -31 -449 0 -109
27 -267 102 -356 170 -348 264 -466 750 -280 1148 129 274 364 460 672 529 45
10 108 14 214 11 127 -3 164 -8 238 -30z"/>
<path d="M848 1805 l3 -145 85 0 84 0 0 75 0 75 99 0 c106 0 156 -12 171 -40
16 -30 12 -68 -10 -90 -20 -20 -20 -20 70 -20 88 0 91 1 100 26 24 63 3 153
-48 207 -45 48 -101 57 -341 57 l-216 0 3 -145z m112 107 c10 -5 15 -22 16
-49 0 -23 -3 -40 -7 -37 -4 2 -10 -2 -12 -8 -3 -7 -6 -4 -6 8 -1 25 -19 44
-43 44 -24 0 -24 37 0 43 25 7 35 6 52 -1z m346 -10 c81 -23 118 -73 112 -153
l-3 -44 -40 0 c-38 0 -40 1 -46 38 -3 22 -18 50 -32 65 -24 24 -36 27 -134 33
-60 4 -109 7 -110 8 -2 1 -3 10 -3 20 0 11 -5 23 -12 27 -21 13 18 19 124 18
57 0 122 -6 144 -12z m-270 -27 c4 -8 0 -23 -7 -32 -8 -9 -17 -46 -20 -82 l-6
-66 -1 71 c-1 38 -7 75 -13 81 -7 7 -9 19 -6 27 8 20 46 21 53 1z m-99 -41 c3
-8 1 -20 -6 -27 -6 -6 -11 -40 -11 -75 0 -39 -4 -61 -10 -57 -5 3 -10 32 -10
64 0 31 -5 62 -11 68 -17 17 -3 43 21 43 11 0 23 -7 27 -16z m41 -67 c10 -12
-5 -87 -18 -87 -3 0 -10 17 -17 37 -11 36 -4 63 17 63 4 0 12 -6 18 -13z"/>
<path d="M1535 1805 l0 -145 83 0 82 0 0 145 0 145 -82 0 -83 0 0 -145z m95
85 c-6 -10 -10 -29 -10 -42 l-1 -23 -19 24 c-34 40 -22 75 22 63 14 -3 15 -8
8 -22z m51 -6 c10 -12 10 -20 1 -35 -7 -10 -13 -56 -14 -101 l-2 -83 -3 80
c-2 44 -8 90 -14 102 -12 22 -6 53 9 53 5 0 15 -7 23 -16z m-89 -59 c-2 -11
-7 -48 -11 -82 -9 -82 -21 -91 -21 -15 0 33 -3 68 -6 77 -4 9 -3 15 2 13 5 -2
9 2 9 7 0 6 -3 9 -7 8 -5 -2 -8 2 -8 8 0 6 10 9 23 7 16 -2 21 -9 19 -23z m44
-55 c8 -8 6 -25 -5 -58 -15 -45 -16 -46 -19 -17 -2 17 -8 36 -14 42 -22 28 13
58 38 33z"/>
<path d="M1853 1804 l-112 -144 97 0 97 1 112 144 112 145 -97 -1 -97 0 -112
-145z m206 107 c12 -8 0 -29 -58 -104 -75 -99 -85 -107 -130 -107 -51 0 -49 6
63 147 32 42 57 63 75 66 14 2 28 5 31 5 3 1 11 -2 19 -7z"/>
<path d="M1033 1571 l-31 -48 29 -47 c16 -25 36 -46 45 -46 13 0 13 4 -4 28
-42 59 -43 66 -17 105 14 20 25 41 25 46 0 24 -19 9 -47 -38z"/>
<path d="M1920 1616 c0 -4 11 -24 25 -46 14 -22 25 -43 25 -47 0 -5 -11 -25
-25 -45 -28 -42 -30 -48 -12 -48 6 0 25 21 40 46 l28 47 -28 45 c-25 40 -53
65 -53 48z"/>
<path d="M1130 1525 c0 -53 3 -65 16 -65 9 0 14 6 11 13 -3 8 -1 20 4 28 8 11
14 9 32 -13 21 -26 47 -37 47 -20 -1 4 -12 20 -25 37 l-24 30 26 27 c38 40 7
36 -35 -4 l-34 -33 7 33 c5 25 3 32 -9 32 -13 0 -16 -12 -16 -65z"/>
<path d="M1302 1574 c-30 -21 -30 -77 0 -98 31 -22 64 -20 88 4 58 58 -20 142
-88 94z m78 -49 c0 -37 -34 -51 -60 -25 -25 25 -25 35 2 54 28 20 58 4 58 -29z"/>
<path d="M1460 1525 l0 -65 50 0 c38 0 50 4 50 15 0 13 -7 15 -35 9 -31 -5
-35 -4 -35 15 0 17 4 20 30 15 23 -5 30 -3 30 10 0 11 -9 16 -30 16 -20 0 -30
5 -30 15 0 11 9 14 31 13 19 -2 34 2 36 10 3 8 -10 12 -46 12 l-51 0 0 -65z"/>
<path d="M1620 1570 c-56 -56 21 -143 85 -97 23 17 4 33 -22 18 -25 -13 -53 5
-53 34 0 30 27 47 52 34 27 -14 46 1 23 18 -27 19 -62 16 -85 -7z"/>
<path d="M1769 1585 c-5 -43 1 -120 10 -123 6 -2 11 7 11 22 0 22 4 26 30 26
25 0 30 -4 30 -25 0 -16 6 -25 15 -25 12 0 15 14 15 65 0 51 -3 65 -15 65 -9
0 -15 -9 -15 -25 0 -21 -5 -25 -30 -25 -25 0 -30 4 -30 25 0 14 -4 25 -10 25
-5 0 -10 -2 -11 -5z"/>
<path d="M848 1254 l3 -136 232 4 c220 3 235 5 280 27 72 35 102 86 102 170
l0 66 -63 3 -63 3 6 -68 c3 -37 8 -85 11 -105 5 -36 4 -38 -20 -38 -19 0 -26
5 -26 19 0 11 5 23 10 26 6 3 10 42 10 86 0 71 -2 79 -19 79 -16 0 -18 -5 -14
-39 4 -31 1 -43 -16 -60 -18 -18 -33 -21 -118 -21 -54 0 -108 -3 -120 -6 -22
-6 -23 -4 -23 60 l0 66 -87 0 -88 0 3 -136z m72 66 c0 -33 6 -69 12 -80 10
-16 10 -22 -3 -35 -13 -13 -17 -13 -34 -1 -17 13 -18 18 -7 35 6 12 12 48 12
81 0 33 4 60 10 60 6 0 10 -27 10 -60z m50 29 c0 -11 5 -30 11 -41 9 -16 7
-24 -5 -36 -15 -15 -17 -15 -33 1 -15 14 -15 21 -5 37 6 11 12 31 12 45 0 15
4 24 10 20 6 -3 10 -15 10 -26z m452 -26 c15 -18 2 -43 -21 -43 -27 0 -36 17
-23 43 6 12 14 31 18 42 7 19 8 18 12 -5 2 -14 8 -31 14 -37z m-391 -130 c16
-18 -10 -47 -34 -37 -18 7 -24 44 -7 44 6 0 11 35 11 83 l2 82 8 -79 c5 -43
14 -85 20 -93z m382 70 c4 -3 0 -15 -9 -25 -19 -20 -47 -7 -37 18 5 14 34 19
46 7z m-108 -20 c-5 -10 -9 -27 -10 -39 -3 -41 -12 -44 -126 -44 -108 0 -110
0 -119 26 -6 14 -10 30 -10 35 0 5 46 9 103 9 69 1 110 5 127 15 34 19 44 18
35 -2z m-335 -59 c0 -16 -50 -28 -63 -15 -8 8 -6 11 6 11 9 0 22 9 29 20 12
19 27 10 28 -16z"/>
<path d="M1535 1255 l0 -135 83 0 82 0 0 135 0 135 -40 0 c-44 0 -46 -5 -26
-61 15 -42 11 -59 -15 -59 -24 0 -36 27 -20 43 6 6 11 26 11 44 0 31 -2 33
-37 33 l-38 0 0 -135z m45 45 c0 -31 5 -61 12 -68 10 -9 8 -16 -5 -29 -13 -13
-19 -14 -29 -5 -9 9 -8 12 5 12 9 0 17 5 17 10 0 6 -6 10 -12 10 -10 0 -12 20
-10 77 4 88 22 82 22 -7z m102 -67 c15 -18 2 -43 -22 -43 -21 0 -29 33 -10 45
6 3 11 39 12 78 l2 72 3 -70 c2 -38 9 -75 15 -82z m-42 -65 c0 -12 -38 -10
-45 2 -4 6 -1 18 6 26 12 14 14 14 26 -2 7 -10 13 -21 13 -26z"/>
<path d="M1867 1255 l107 -135 94 0 c51 0 92 3 90 8 -1 4 -48 64 -103 134
l-100 127 -97 0 -98 1 107 -135z m69 87 c14 -9 105 -118 128 -154 l18 -28 -37
0 c-20 0 -45 5 -55 10 -18 10 -140 162 -140 174 0 9 73 7 86 -2z"/>
<path d="M1340 960 c0 -49 1 -50 30 -50 29 0 70 29 70 50 0 21 -41 50 -70 50
-29 0 -30 -1 -30 -50z m65 0 c0 -16 -6 -26 -17 -28 -14 -3 -18 3 -18 28 0 25
4 31 18 28 11 -2 17 -12 17 -28z"/>
<path d="M1470 960 l0 -50 35 0 c19 0 35 5 35 10 0 6 -11 10 -25 10 -14 0 -25
5 -25 10 0 6 11 10 25 10 14 0 25 5 25 10 0 6 -11 10 -25 10 -14 0 -25 5 -25
10 0 6 11 10 25 10 14 0 25 5 25 10 0 6 -16 10 -35 10 l-35 0 0 -50z"/>
<path d="M1570 1003 c0 -21 34 -93 44 -93 10 0 46 73 46 93 0 20 -19 2 -32
-30 l-14 -38 -13 38 c-11 32 -31 51 -31 30z"/>
<path d="M850 960 c0 -6 80 -10 220 -10 140 0 220 4 220 10 0 6 -80 10 -220
10 -140 0 -220 -4 -220 -10z"/>
<path d="M1705 960 c-4 -7 72 -10 219 -10 144 0 226 4 226 10 0 6 -80 10 -219
10 -136 0 -222 -4 -226 -10z"/>
</g>
</svg>
