<?xml version="1.0" encoding="UTF-8"?>
<svg version="1.1" xmlns="http://www.w3.org/2000/svg" width="1024" height="1024">
<path d="M0 0 C337.92 0 675.84 0 1024 0 C1024 337.92 1024 675.84 1024 1024 C686.08 1024 348.16 1024 0 1024 C0 686.08 0 348.16 0 0 Z " fill="#FDFEFE" transform="translate(0,0)"/>
<path d="M0 0 C3.32538263 0.0106863 6.65021989 0.00005307 9.97558594 -0.01269531 C29.45414333 -0.02671739 48.84315131 0.99523978 68.03027344 4.51074219 C69.84374268 4.83606934 69.84374268 4.83606934 71.69384766 5.16796875 C130.86253978 16.05544174 186.44723459 40.82523013 233.59277344 78.26074219 C234.52605469 78.999375 235.45933594 79.73800781 236.42089844 80.49902344 C242.43814771 85.33861106 248.15162045 90.44438705 253.80761719 95.69433594 C256.1192436 97.82440403 258.45890324 99.90025976 260.84277344 101.94824219 C266.83459384 107.1585208 272.33165365 112.80246502 277.49902344 118.82714844 C279.15017081 120.74629921 280.81774151 122.64556878 282.49902344 124.53808594 C346.93222776 197.38370194 375.85082716 292.19614905 371.35449219 388.40136719 C369.33850877 420.07584082 362.36375542 452.46770204 351.59277344 482.26074219 C351.18019287 483.42742432 351.18019287 483.42742432 350.75927734 484.61767578 C339.52767787 516.22199038 324.22937775 546.07253016 304.59277344 573.26074219 C303.82900391 574.32180176 303.82900391 574.32180176 303.04980469 575.40429688 C286.59951137 598.12388578 267.24251487 620.34750435 245.59277344 638.26074219 C245.07473145 638.69789551 244.55668945 639.13504883 244.02294922 639.58544922 C210.97935923 667.43321954 172.4106655 690.35382345 131.54516602 704.54516602 C129.71426037 705.21621572 127.92239341 705.99117955 126.13574219 706.77246094 C88.25402355 722.68528872 42.93887551 726.41961071 2.28027344 726.44824219 C1.4304187 726.44932983 0.58056396 726.45041748 -0.29504395 726.45153809 C-2.72445658 726.45118496 -5.15363491 726.44207215 -7.58300781 726.42871094 C-8.679786 726.42689064 -8.679786 726.42689064 -9.79872131 726.42503357 C-13.16956916 726.39394091 -16.16729068 726.17430216 -19.40722656 725.26074219 C-21.02941012 725.10745959 -22.65528419 724.99099737 -24.28222656 724.90136719 C-40.59155067 723.87594684 -56.39319779 721.48372391 -72.40722656 718.26074219 C-73.20499512 718.10379883 -74.00276367 717.94685547 -74.82470703 717.78515625 C-121.64342531 708.40190931 -166.75862556 686.97475347 -205.40722656 659.26074219 C-205.97731445 658.85259277 -206.54740234 658.44444336 -207.13476562 658.02392578 C-232.05302902 640.04818042 -256.67752975 618.68455332 -275.40722656 594.26074219 C-276.30339615 593.16146795 -277.20341861 592.06532797 -278.10644531 590.97167969 C-291.15660315 575.10138816 -302.56586996 558.29273744 -312.40722656 540.26074219 C-312.88901367 539.38611328 -313.37080078 538.51148438 -313.8671875 537.61035156 C-325.48146732 516.40692335 -334.99714725 494.27589794 -342.40722656 471.26074219 C-342.72183838 470.29362305 -343.0364502 469.32650391 -343.3605957 468.33007812 C-345.99792451 460.02303138 -348.08127381 451.64091743 -349.96972656 443.13574219 C-350.12130219 442.45854126 -350.27287781 441.78134033 -350.42904663 441.08361816 C-352.85955498 430.19348064 -354.94870352 419.32473352 -356.40722656 408.26074219 C-356.54507065 407.22856567 -356.54507065 407.22856567 -356.68569946 406.17553711 C-358.3508766 393.33212112 -358.71902608 380.61563616 -358.66796875 367.67358398 C-358.65727308 364.46220883 -358.66791961 361.25139715 -358.68066406 358.04003906 C-358.73393564 281.77265094 -332.52651678 205.92762845 -286.40722656 145.26074219 C-285.93188477 144.63377441 -285.45654297 144.00680664 -284.96679688 143.36083984 C-281.84876187 139.27073724 -278.65271325 135.25020696 -275.40722656 131.26074219 C-274.97716309 130.72626465 -274.54709961 130.19178711 -274.10400391 129.64111328 C-267.48104966 121.4580744 -260.26186366 113.91442577 -252.84472656 106.44824219 C-251.98250488 105.57675537 -251.1202832 104.70526855 -250.23193359 103.80737305 C-245.01531978 98.61594833 -239.61355633 93.82793528 -233.85546875 89.24365234 C-231.56206032 87.38614703 -229.38299123 85.45456033 -227.21972656 83.44824219 C-184.20721062 44.88265302 -125.87342577 18.10984387 -69.40722656 7.26074219 C-68.34310547 7.04724121 -67.27898437 6.83374023 -66.18261719 6.61376953 C-62.71849728 5.91906395 -59.25135471 5.24246615 -55.78222656 4.57324219 C-54.74662598 4.37037598 -53.71102539 4.16750977 -52.64404297 3.95849609 C-35.14956866 0.71335651 -17.7613053 -0.06757301 0 0 Z " fill="#FDFDFD" transform="translate(505.4072265625,149.7392578125)"/>
<path d="M0 0 C3.32538263 0.0106863 6.65021989 0.00005307 9.97558594 -0.01269531 C29.45414333 -0.02671739 48.84315131 0.99523978 68.03027344 4.51074219 C69.84374268 4.83606934 69.84374268 4.83606934 71.69384766 5.16796875 C130.86253978 16.05544174 186.44723459 40.82523013 233.59277344 78.26074219 C234.52605469 78.999375 235.45933594 79.73800781 236.42089844 80.49902344 C242.43814771 85.33861106 248.15162045 90.44438705 253.80761719 95.69433594 C256.1192436 97.82440403 258.45890324 99.90025976 260.84277344 101.94824219 C266.83459384 107.1585208 272.33165365 112.80246502 277.49902344 118.82714844 C279.15017081 120.74629921 280.81774151 122.64556878 282.49902344 124.53808594 C346.93222776 197.38370194 375.85082716 292.19614905 371.35449219 388.40136719 C369.33850877 420.07584082 362.36375542 452.46770204 351.59277344 482.26074219 C351.18019287 483.42742432 351.18019287 483.42742432 350.75927734 484.61767578 C339.52767787 516.22199038 324.22937775 546.07253016 304.59277344 573.26074219 C303.82900391 574.32180176 303.82900391 574.32180176 303.04980469 575.40429688 C286.59951137 598.12388578 267.24251487 620.34750435 245.59277344 638.26074219 C245.07473145 638.69789551 244.55668945 639.13504883 244.02294922 639.58544922 C210.97935923 667.43321954 172.4106655 690.35382345 131.54516602 704.54516602 C129.71426037 705.21621572 127.92239341 705.99117955 126.13574219 706.77246094 C88.25402355 722.68528872 42.93887551 726.41961071 2.28027344 726.44824219 C1.4304187 726.44932983 0.58056396 726.45041748 -0.29504395 726.45153809 C-2.72445658 726.45118496 -5.15363491 726.44207215 -7.58300781 726.42871094 C-8.679786 726.42689064 -8.679786 726.42689064 -9.79872131 726.42503357 C-13.16956916 726.39394091 -16.16729068 726.17430216 -19.40722656 725.26074219 C-21.02941012 725.10745959 -22.65528419 724.99099737 -24.28222656 724.90136719 C-40.59155067 723.87594684 -56.39319779 721.48372391 -72.40722656 718.26074219 C-73.20499512 718.10379883 -74.00276367 717.94685547 -74.82470703 717.78515625 C-121.64342531 708.40190931 -166.75862556 686.97475347 -205.40722656 659.26074219 C-205.97731445 658.85259277 -206.54740234 658.44444336 -207.13476562 658.02392578 C-232.05302902 640.04818042 -256.67752975 618.68455332 -275.40722656 594.26074219 C-276.30339615 593.16146795 -277.20341861 592.06532797 -278.10644531 590.97167969 C-291.15660315 575.10138816 -302.56586996 558.29273744 -312.40722656 540.26074219 C-312.88901367 539.38611328 -313.37080078 538.51148438 -313.8671875 537.61035156 C-325.48146732 516.40692335 -334.99714725 494.27589794 -342.40722656 471.26074219 C-342.72183838 470.29362305 -343.0364502 469.32650391 -343.3605957 468.33007812 C-345.99792451 460.02303138 -348.08127381 451.64091743 -349.96972656 443.13574219 C-350.12130219 442.45854126 -350.27287781 441.78134033 -350.42904663 441.08361816 C-352.85955498 430.19348064 -354.94870352 419.32473352 -356.40722656 408.26074219 C-356.54507065 407.22856567 -356.54507065 407.22856567 -356.68569946 406.17553711 C-358.3508766 393.33212112 -358.71902608 380.61563616 -358.66796875 367.67358398 C-358.65727308 364.46220883 -358.66791961 361.25139715 -358.68066406 358.04003906 C-358.73393564 281.77265094 -332.52651678 205.92762845 -286.40722656 145.26074219 C-285.93188477 144.63377441 -285.45654297 144.00680664 -284.96679688 143.36083984 C-281.84876187 139.27073724 -278.65271325 135.25020696 -275.40722656 131.26074219 C-274.97716309 130.72626465 -274.54709961 130.19178711 -274.10400391 129.64111328 C-267.48104966 121.4580744 -260.26186366 113.91442577 -252.84472656 106.44824219 C-251.98250488 105.57675537 -251.1202832 104.70526855 -250.23193359 103.80737305 C-245.01531978 98.61594833 -239.61355633 93.82793528 -233.85546875 89.24365234 C-231.56206032 87.38614703 -229.38299123 85.45456033 -227.21972656 83.44824219 C-184.20721062 44.88265302 -125.87342577 18.10984387 -69.40722656 7.26074219 C-68.34310547 7.04724121 -67.27898437 6.83374023 -66.18261719 6.61376953 C-62.71849728 5.91906395 -59.25135471 5.24246615 -55.78222656 4.57324219 C-54.74662598 4.37037598 -53.71102539 4.16750977 -52.64404297 3.95849609 C-35.14956866 0.71335651 -17.7613053 -0.06757301 0 0 Z M-91.40722656 42.26074219 C-92.24366699 42.51404297 -93.08010742 42.76734375 -93.94189453 43.02832031 C-148.00474344 59.5168177 -194.6754681 89.65440615 -234.56018066 129.23846436 C-235.56655042 130.2367886 -236.57439546 131.23362833 -237.5838623 132.2288208 C-244.32826316 138.88796702 -250.53905563 145.81317295 -256.40722656 153.26074219 C-257.2649929 154.32088615 -258.12300066 155.38083491 -258.98144531 156.44042969 C-282.3835075 186.28779181 -299.78365198 219.58922403 -312.40722656 255.26074219 C-312.89254158 256.59420735 -313.37817212 257.92755776 -313.86425781 259.26074219 C-319.24972803 274.57941304 -322.94817787 290.51650825 -325.65722656 306.51074219 C-325.80812744 307.39431396 -325.95902832 308.27788574 -326.11450195 309.18823242 C-328.73945649 325.62266607 -329.73871555 341.95709043 -329.66796875 358.58666992 C-329.65727089 361.56091866 -329.66792961 364.53455866 -329.68066406 367.50878906 C-329.69715579 386.81781701 -328.29495198 405.81204291 -324.53222656 424.76074219 C-324.28859375 426.05753906 -324.04496094 427.35433594 -323.79394531 428.69042969 C-313.18156331 483.78683778 -287.38512311 535.45314324 -251.40722656 578.26074219 C-250.55542369 579.29960765 -249.70387311 580.33868 -248.85253906 581.37792969 C-237.08537277 595.58226797 -224.03825996 609.0028577 -209.40722656 620.26074219 C-208.27177748 621.18198117 -207.1391576 622.10671387 -206.00878906 623.03417969 C-170.66330068 651.95749594 -128.07939238 675.46426771 -83.40722656 686.26074219 C-82.45025879 686.4945459 -81.49329102 686.72834961 -80.50732422 686.96923828 C-68.01529517 689.97760049 -55.47563369 692.57070319 -42.78222656 694.57324219 C-41.789729 694.73252197 -40.79723145 694.89180176 -39.7746582 695.0559082 C-23.43116017 697.49513597 -6.89621591 697.50103717 9.59277344 697.51074219 C10.63113342 697.51141693 11.66949341 697.51209167 12.73931885 697.51278687 C28.23720092 697.49682443 43.30706052 697.03752138 58.59277344 694.26074219 C59.60275391 694.08381836 60.61273437 693.90689453 61.65332031 693.72460938 C85.61841853 689.45513495 110.72032423 684.17375868 132.79980469 673.58496094 C135.48349939 672.31255184 138.19846372 671.13829908 140.93212891 669.97802734 C157.87989518 662.74345748 174.26399997 654.50856425 189.59277344 644.26074219 C190.26002441 643.81730469 190.92727539 643.37386719 191.61474609 642.91699219 C209.53992343 630.9527117 226.61782635 617.8128821 241.59277344 602.26074219 C251.59277344 592.26074219 251.59277344 592.26074219 253.37011719 590.55371094 C258.92298758 585.15478151 263.81566357 579.3482154 268.59277344 573.26074219 C269.08970703 572.62958496 269.58664062 571.99842773 270.09863281 571.34814453 C277.73614358 561.61055087 284.92285634 551.68449446 291.59277344 541.26074219 C292.29015625 540.184375 292.98753906 539.10800781 293.70605469 537.99902344 C298.96000252 529.70492715 303.35574037 521.10182964 307.59277344 512.26074219 C307.89038574 511.64473145 308.18799805 511.0287207 308.49462891 510.39404297 C319.23145629 488.11198235 327.99928671 465.38569363 333.59277344 441.26074219 C333.93146884 439.90596056 334.2726646 438.55180185 334.61621094 437.19824219 C336.50404125 429.66372131 338.04757778 422.12836127 339.21777344 414.44824219 C339.32871338 413.72797852 339.43965332 413.00771484 339.55395508 412.265625 C339.93809355 409.60096826 340.27101579 406.93372627 340.59277344 404.26074219 C340.67468933 403.59261505 340.75660522 402.92448792 340.84100342 402.2361145 C342.49719636 388.42090869 342.99389571 374.73065753 342.96777344 360.82324219 C342.96745621 359.25209152 342.96745621 359.25209152 342.96713257 357.64920044 C342.93275012 340.51712943 341.91117165 324.10530769 338.59277344 307.26074219 C338.40021973 306.25446777 338.20766602 305.24819336 338.00927734 304.21142578 C336.70583085 297.517787 335.19294235 290.88884113 333.59277344 284.26074219 C333.37927246 283.34196289 333.16577148 282.42318359 332.94580078 281.4765625 C321.0337732 230.43009926 295.20829125 182.48032142 260.59277344 143.26074219 C259.94276367 142.52315674 259.29275391 141.78557129 258.62304688 141.02563477 C253.01146719 134.72034303 247.18339954 128.66825478 241.21777344 122.69824219 C240.34894531 121.81716797 239.48011719 120.93609375 238.58496094 120.02832031 C232.57026989 114.00028305 226.26117787 108.55049983 219.59277344 103.26074219 C218.45848442 102.33155212 217.32540575 101.40087945 216.19433594 100.46777344 C201.94842544 89.00748061 186.63617397 78.91186526 170.51123047 70.29638672 C168.58445373 69.25625094 166.68014403 68.18215613 164.77636719 67.10058594 C144.64139532 55.83158941 122.59629122 48.01369875 100.59277344 41.26074219 C99.82755371 41.02162109 99.06233398 40.7825 98.27392578 40.53613281 C37.87621089 21.99404794 -31.33702306 23.56752581 -91.40722656 42.26074219 Z " fill="#FAFBFA" transform="translate(505.4072265625,149.7392578125)"/>
<path d="M0 0 C3.32538263 0.0106863 6.65021989 0.00005307 9.97558594 -0.01269531 C29.45414333 -0.02671739 48.84315131 0.99523978 68.03027344 4.51074219 C69.84374268 4.83606934 69.84374268 4.83606934 71.69384766 5.16796875 C130.86253978 16.05544174 186.44723459 40.82523013 233.59277344 78.26074219 C234.52605469 78.999375 235.45933594 79.73800781 236.42089844 80.49902344 C242.43814771 85.33861106 248.15162045 90.44438705 253.80761719 95.69433594 C256.1192436 97.82440403 258.45890324 99.90025976 260.84277344 101.94824219 C266.83459384 107.1585208 272.33165365 112.80246502 277.49902344 118.82714844 C279.15017081 120.74629921 280.81774151 122.64556878 282.49902344 124.53808594 C346.93222776 197.38370194 375.85082716 292.19614905 371.35449219 388.40136719 C369.33850877 420.07584082 362.36375542 452.46770204 351.59277344 482.26074219 C351.18019287 483.42742432 351.18019287 483.42742432 350.75927734 484.61767578 C339.52767787 516.22199038 324.22937775 546.07253016 304.59277344 573.26074219 C303.82900391 574.32180176 303.82900391 574.32180176 303.04980469 575.40429688 C286.59951137 598.12388578 267.24251487 620.34750435 245.59277344 638.26074219 C245.07473145 638.69789551 244.55668945 639.13504883 244.02294922 639.58544922 C210.97935923 667.43321954 172.4106655 690.35382345 131.54516602 704.54516602 C129.71426037 705.21621572 127.92239341 705.99117955 126.13574219 706.77246094 C88.25402355 722.68528872 42.93887551 726.41961071 2.28027344 726.44824219 C1.4304187 726.44932983 0.58056396 726.45041748 -0.29504395 726.45153809 C-2.72445658 726.45118496 -5.15363491 726.44207215 -7.58300781 726.42871094 C-8.679786 726.42689064 -8.679786 726.42689064 -9.79872131 726.42503357 C-13.16956916 726.39394091 -16.16729068 726.17430216 -19.40722656 725.26074219 C-21.02941012 725.10745959 -22.65528419 724.99099737 -24.28222656 724.90136719 C-40.59155067 723.87594684 -56.39319779 721.48372391 -72.40722656 718.26074219 C-73.20499512 718.10379883 -74.00276367 717.94685547 -74.82470703 717.78515625 C-121.64342531 708.40190931 -166.75862556 686.97475347 -205.40722656 659.26074219 C-205.97731445 658.85259277 -206.54740234 658.44444336 -207.13476562 658.02392578 C-232.05302902 640.04818042 -256.67752975 618.68455332 -275.40722656 594.26074219 C-276.30339615 593.16146795 -277.20341861 592.06532797 -278.10644531 590.97167969 C-291.15660315 575.10138816 -302.56586996 558.29273744 -312.40722656 540.26074219 C-312.88901367 539.38611328 -313.37080078 538.51148438 -313.8671875 537.61035156 C-325.48146732 516.40692335 -334.99714725 494.27589794 -342.40722656 471.26074219 C-342.72183838 470.29362305 -343.0364502 469.32650391 -343.3605957 468.33007812 C-345.99792451 460.02303138 -348.08127381 451.64091743 -349.96972656 443.13574219 C-350.12130219 442.45854126 -350.27287781 441.78134033 -350.42904663 441.08361816 C-352.85955498 430.19348064 -354.94870352 419.32473352 -356.40722656 408.26074219 C-356.54507065 407.22856567 -356.54507065 407.22856567 -356.68569946 406.17553711 C-358.3508766 393.33212112 -358.71902608 380.61563616 -358.66796875 367.67358398 C-358.65727308 364.46220883 -358.66791961 361.25139715 -358.68066406 358.04003906 C-358.73393564 281.77265094 -332.52651678 205.92762845 -286.40722656 145.26074219 C-285.93188477 144.63377441 -285.45654297 144.00680664 -284.96679688 143.36083984 C-281.84876187 139.27073724 -278.65271325 135.25020696 -275.40722656 131.26074219 C-274.97716309 130.72626465 -274.54709961 130.19178711 -274.10400391 129.64111328 C-267.48104966 121.4580744 -260.26186366 113.91442577 -252.84472656 106.44824219 C-251.98250488 105.57675537 -251.1202832 104.70526855 -250.23193359 103.80737305 C-245.01531978 98.61594833 -239.61355633 93.82793528 -233.85546875 89.24365234 C-231.56206032 87.38614703 -229.38299123 85.45456033 -227.21972656 83.44824219 C-184.20721062 44.88265302 -125.87342577 18.10984387 -69.40722656 7.26074219 C-68.34310547 7.04724121 -67.27898437 6.83374023 -66.18261719 6.61376953 C-62.71849728 5.91906395 -59.25135471 5.24246615 -55.78222656 4.57324219 C-54.74662598 4.37037598 -53.71102539 4.16750977 -52.64404297 3.95849609 C-35.14956866 0.71335651 -17.7613053 -0.06757301 0 0 Z M-76.40722656 21.26074219 C-77.92243896 21.60661377 -77.92243896 21.60661377 -79.46826172 21.95947266 C-127.32128311 33.06950645 -172.9720813 55.72468195 -211.40722656 86.26074219 C-211.99842285 86.72480469 -212.58961914 87.18886719 -213.19873047 87.66699219 C-236.1278206 105.70201266 -256.66454121 126.11495939 -274.40722656 149.26074219 C-274.86145996 149.85274414 -275.31569336 150.44474609 -275.78369141 151.0546875 C-309.47910351 195.26092957 -333.91492758 249.20721777 -342.40722656 304.26074219 C-342.58769531 305.41058594 -342.76816406 306.56042969 -342.95410156 307.74511719 C-348.98055304 347.64999859 -348.31819658 388.67612362 -340.40722656 428.26074219 C-340.25527832 429.03401855 -340.10333008 429.80729492 -339.94677734 430.60400391 C-328.3322259 488.83076625 -302.72523915 544.55235691 -263.40722656 589.26074219 C-262.77300781 589.99421875 -262.13878906 590.72769531 -261.48535156 591.48339844 C-259.80573381 593.42112259 -258.1079693 595.34155543 -256.40722656 597.26074219 C-255.80394531 597.95683594 -255.20066406 598.65292969 -254.57910156 599.37011719 C-244.5802218 610.74288882 -233.92901199 621.89314924 -221.98925781 631.23730469 C-219.18118183 633.43788465 -216.48980321 635.75036858 -213.78222656 638.07324219 C-177.95351141 667.93050482 -133.7383786 689.676088 -88.84521484 701.60205078 C-86.54181244 702.22438001 -84.25399196 702.88564688 -81.96582031 703.56152344 C-2.43186261 726.54113418 89.0669744 714.89748213 162.59277344 678.26074219 C164.05166992 677.53951172 164.05166992 677.53951172 165.54003906 676.80371094 C190.84992656 664.20693174 214.347604 648.9444373 235.59277344 630.26074219 C236.32625 629.62652344 237.05972656 628.99230469 237.81542969 628.33886719 C239.75317415 626.65923183 241.67443845 624.96249097 243.59277344 623.26074219 C244.33527344 622.61105469 245.07777344 621.96136719 245.84277344 621.29199219 C255.67457099 612.59463281 265.22311587 603.38973594 273.59277344 593.26074219 C274.03524414 592.73206543 274.47771484 592.20338867 274.93359375 591.65869141 C335.11656534 519.6297503 366.31887759 427.53561033 358.84277344 333.63574219 C357.71969483 321.42148095 355.81279102 309.31920898 353.59277344 297.26074219 C353.33222168 295.84075928 353.33222168 295.84075928 353.06640625 294.39208984 C347.16300379 263.11278643 336.53867665 232.23478538 321.57421875 204.11767578 C320.53493779 202.15131484 319.52737699 200.17064838 318.52246094 198.18652344 C305.1211863 171.9614843 287.67833833 148.49265173 267.88183594 126.77246094 C266.28072224 125.01560751 264.69323694 123.24628068 263.11621094 121.46777344 C252.59453604 109.72012167 241.07461202 98.90954366 228.59277344 89.26074219 C227.89587402 88.71836914 227.19897461 88.17599609 226.48095703 87.6171875 C214.61955781 78.42540572 202.4955446 69.92712488 189.59277344 62.26074219 C188.53171387 61.62990723 188.53171387 61.62990723 187.44921875 60.98632812 C161.29951557 45.61774967 133.5892118 34.02683327 104.59277344 25.26074219 C102.98136475 24.75486572 102.98136475 24.75486572 101.33740234 24.23876953 C85.65588306 19.34237508 69.14664597 16.76984799 52.90527344 14.51074219 C52.08285156 14.39529053 51.26042969 14.27983887 50.41308594 14.16088867 C8.14379419 8.62102422 -35.04346826 11.69869946 -76.40722656 21.26074219 Z " fill="#233864" transform="translate(505.4072265625,149.7392578125)"/>
<path d="M0 0 C0.98242676 0.30244629 1.96485352 0.60489258 2.97705078 0.91650391 C46.49113268 14.4479628 86.0379162 34.72115769 121 64 C121.89847656 64.71285156 122.79695312 65.42570312 123.72265625 66.16015625 C131.70021147 72.62418321 138.97982246 79.76335049 146.25 87 C146.76356049 87.50838409 147.27712097 88.01676819 147.8062439 88.54055786 C154.67617553 95.35589765 160.98712052 102.40194766 167 110 C168.04807002 111.27826946 169.09853329 112.55458384 170.15234375 113.828125 C177.00557292 122.21054754 183.22034833 130.84584806 189 140 C189.36657715 140.57621094 189.7331543 141.15242187 190.11083984 141.74609375 C212.89304463 177.80514197 228.55197564 217.37283702 236.75 259.1875 C236.93651123 260.13399414 237.12302246 261.08048828 237.31518555 262.05566406 C237.93068505 265.36373226 238.47663074 268.6759897 239 272 C239.1895224 273.19964386 239.1895224 273.19964386 239.38287354 274.42352295 C241.67026987 289.25334548 242.49229724 303.75655594 242.375 318.75 C242.37101196 319.79316376 242.36702393 320.83632751 242.36291504 321.91110229 C242.29048615 338.11923185 241.5849358 353.97339807 239 370 C238.76724365 371.51037842 238.76724365 371.51037842 238.52978516 373.05126953 C237.49038418 379.72950026 236.30144826 386.36819335 235 393 C234.8654541 393.71140137 234.7309082 394.42280273 234.59228516 395.15576172 C229.92894237 419.32358005 220.48557687 442.84433428 210 465 C209.63132812 465.78036621 209.26265625 466.56073242 208.8828125 467.36474609 C199.24403151 487.57085606 187.68691584 506.28482799 174 524 C173.13797446 525.13277721 172.27599701 526.26559102 171.4140625 527.3984375 C165.44587057 535.17909553 159.07173499 542.42546922 152.34423828 549.55419922 C150.42721229 551.61606408 148.5912435 553.7454992 146.75 555.875 C143.81550202 559.19277934 140.73734917 562.10331228 137.3515625 564.953125 C135.54016852 566.52982009 133.80910703 568.1280047 132.0859375 569.796875 C100.59740828 600.17047212 60.84471075 621.95466984 20 637 C19.02289062 637.38542969 18.04578125 637.77085937 17.0390625 638.16796875 C0.11999488 644.62227973 -17.77747282 648.61124391 -35.5625 651.8125 C-36.64160645 652.00714844 -37.72071289 652.20179688 -38.83251953 652.40234375 C-55.96113554 655.34030355 -72.69584396 656.34257576 -90.0625 656.25 C-91.61529663 656.24534729 -91.61529663 656.24534729 -93.19946289 656.24060059 C-116.54320282 656.15858837 -139.08405846 654.68530391 -162 650 C-163.55654297 649.68289063 -163.55654297 649.68289063 -165.14453125 649.359375 C-227.05697664 636.48278418 -283.55969028 605.84870517 -329 562 C-329.92474121 561.10812988 -329.92474121 561.10812988 -330.86816406 560.19824219 C-338.78906196 552.5150901 -346.20056053 544.70805406 -353 536 C-353.92723452 534.85997964 -354.85708341 533.7220824 -355.7890625 532.5859375 C-381.18418849 501.52622413 -399.53333103 466.73554316 -413 429 C-413.33370605 428.07155273 -413.66741211 427.14310547 -414.01123047 426.18652344 C-425.94269604 392.47539849 -430.2293399 356.95064308 -430.25 321.375 C-430.25067474 320.3295401 -430.25134949 319.2840802 -430.25204468 318.2069397 C-430.23539589 301.94200421 -429.66580369 286.07804723 -427 270 C-426.82839355 268.93168945 -426.65678711 267.86337891 -426.47998047 266.76269531 C-423.85244825 250.80965339 -419.93514281 235.38778611 -415 220 C-414.72961914 219.14776855 -414.45923828 218.29553711 -414.18066406 217.41748047 C-400.85562659 175.93371937 -378.98181468 136.58473246 -350 104 C-349.36884277 103.28271729 -348.73768555 102.56543457 -348.08740234 101.82641602 C-342.47823902 95.50964873 -336.64319154 89.4569442 -330.67138672 83.48608398 C-329.1282647 81.94076934 -327.59335694 80.38759554 -326.05859375 78.83398438 C-319.70164209 72.44059447 -313.11584885 66.55646857 -306 61 C-305.31679688 60.46286377 -304.63359375 59.92572754 -303.9296875 59.37231445 C-225.38725809 -1.67638753 -126.87077945 -24.52777175 0 0 Z M-112.90771484 -0.94873047 C-126.76035118 -0.68621292 -140.37246743 1.65012969 -154 4 C-154.90041016 4.15339844 -155.80082031 4.30679688 -156.72851562 4.46484375 C-173.49762373 7.38233292 -190.13896537 11.79359515 -206 18 C-206.68916504 18.26095459 -207.37833008 18.52190918 -208.08837891 18.79077148 C-240.76894896 31.18722685 -271.031163 47.68568309 -298 70 C-299.28197266 71.02287109 -299.28197266 71.02287109 -300.58984375 72.06640625 C-316.46603205 84.79924594 -331.41303474 98.99382516 -344 115 C-344.94187457 116.15409016 -345.88601464 117.30633392 -346.83203125 118.45703125 C-357.30763226 131.25526147 -366.60153718 144.71865099 -374.86865234 159.04296875 C-375.63390188 160.36671503 -376.40524335 161.68695526 -377.18212891 163.00390625 C-396.93407729 196.54164865 -409.21712761 234.15578988 -415.3125 272.5 C-415.47218262 273.5012793 -415.63186523 274.50255859 -415.79638672 275.53417969 C-428.12637047 359.16008054 -405.3865838 445.97590228 -355.58398438 513.88427734 C-339.45858383 535.42292116 -320.50872544 556.74379175 -299 573 C-297.60974609 574.11568359 -297.60974609 574.11568359 -296.19140625 575.25390625 C-267.87912315 597.72339972 -235.97710625 614.869354 -202 627 C-201.31744141 627.24588867 -200.63488281 627.49177734 -199.93164062 627.74511719 C-181.23511856 634.42516916 -161.93298004 638.76433331 -142.3125 641.625 C-141.46961426 641.7482666 -140.62672852 641.8715332 -139.75830078 641.99853516 C-137.17491036 642.36044007 -134.5900475 642.68937744 -132 643 C-131.18305664 643.09933838 -130.36611328 643.19867676 -129.52441406 643.30102539 C-119.50596628 644.32352111 -109.42722119 644.18606225 -99.36816406 644.18530273 C-96.16717868 644.18747142 -92.96654889 644.20562669 -89.765625 644.22460938 C-20.57180711 644.41335374 49.70582265 621.35312589 104 578 C105.01320313 577.19820312 106.02640625 576.39640625 107.0703125 575.5703125 C113.24796384 570.59721713 119.14100496 565.34148128 125 560 C126.728887 558.45801971 128.45805194 556.91635099 130.1875 555.375 C136.22776018 549.92932793 141.85185862 544.29265812 147.1484375 538.12109375 C148.37657169 536.71418054 149.63199376 535.33060253 150.9140625 533.97265625 C189.81746498 492.51940529 214.81569676 436.01351339 225.3125 380.6875 C225.67649902 378.77674683 225.67649902 378.77674683 226.04785156 376.82739258 C229.35947715 358.52562583 230.37933282 340.52113329 230.3125 321.9375 C230.31034485 320.85739655 230.3081897 319.77729309 230.30596924 318.66445923 C230.25457082 302.60126386 229.90961373 286.84209474 227 271 C226.79600586 269.88544434 226.59201172 268.77088867 226.38183594 267.62255859 C218.60754136 226.50480118 204.49311107 186.45662864 182 151 C181.60103516 150.36980957 181.20207031 149.73961914 180.79101562 149.09033203 C160.56116216 117.4180695 135.11593386 88.56586081 105 66 C103.82027764 65.10030613 102.64059056 64.20056599 101.4609375 63.30078125 C71.35495498 40.55557522 37.18886029 23.906073 1.22314453 12.69335938 C-0.69045811 12.09654063 -2.59784412 11.47985453 -4.50390625 10.859375 C-39.74027422 -0.03579645 -76.382932 -1.59274427 -112.90771484 -0.94873047 Z " fill="#0ABECC" transform="translate(606,191)"/>
<path d="M0 0 C34.0515858 -0.1209091 34.0515858 -0.1209091 48.43359375 -0.14648438 C58.32377851 -0.16421427 68.21388602 -0.1849393 78.10400391 -0.22631836 C85.31021972 -0.25645363 92.51637225 -0.2756295 99.72264934 -0.28226548 C103.52956793 -0.28613743 107.33630565 -0.29507457 111.14316559 -0.31719017 C133.37101812 -0.44105896 154.40053946 -0.19821557 175 9 C175.99386719 9.42925781 176.98773438 9.85851562 178.01171875 10.30078125 C193.25900436 17.67429027 201.39452922 30.64896474 207.1171875 45.99609375 C212.92866673 64.17772161 210.40515463 82.18969074 202 99 C182.53 99 163.06 99 143 99 C144.98 96.69 146.96 94.38 149 92 C153.45648046 84.16274126 154.32623292 76.04829792 152.38671875 67.203125 C150.16096803 60.7317793 146.94023248 57.27098889 141 54 C132.43014265 50.24298517 123.43543997 50.52489801 114.2734375 50.48828125 C112.67345833 50.47140603 111.07349219 50.45325203 109.47354126 50.43388367 C105.29469882 50.38668569 101.11590922 50.35668213 96.93688965 50.33044434 C91.90553254 50.29520302 86.87437823 50.23827754 81.84318542 50.18505096 C74.22881726 50.10689177 66.61470803 50.05601891 59 50 C59 66.17 59 82.34 59 99 C39.53 99 20.06 99 0 99 C0 66.33 0 33.66 0 0 Z " fill="#203964" transform="translate(289,358)"/>
<path d="M0 0 C19.47 0 38.94 0 59 0 C59 14.19 59 28.38 59 43 C71.706271 42.93808555 71.706271 42.93808555 84.41210938 42.83984375 C89.60180891 42.7916748 94.79130026 42.74756825 99.98120117 42.72900391 C104.17008667 42.71375014 108.35842387 42.67915255 112.54706383 42.63169098 C114.13721613 42.61696638 115.72744676 42.60896416 117.31766701 42.60811615 C127.70909055 42.59701173 137.66484537 42.10002847 146.4375 35.8125 C152.82805934 28.79847145 153.44354799 22.16091575 153.43359375 12.84375 C153.02663219 8.04043092 153.02663219 8.04043092 150 0 C169.8 0 189.6 0 210 0 C212.33571228 8.56427837 213.55450847 14.18239697 213.5 22.625 C213.49427979 23.6675293 213.48855957 24.71005859 213.48266602 25.78417969 C213.0775819 43.53150113 206.73157537 58.79228987 194.43359375 71.75390625 C172.15260247 92.31822404 140.16970945 92.77673923 111.69068527 92.50696969 C107.74704328 92.47514303 103.80336975 92.47273211 99.85961914 92.46684265 C92.43350839 92.45146602 85.00777743 92.4106636 77.58183193 92.3600952 C67.51757723 92.29308757 57.45321442 92.26663604 47.38879204 92.23758411 C31.59224502 92.19094432 15.7964984 92.09122721 0 92 C0 61.64 0 31.28 0 0 Z " fill="#203965" transform="translate(289,549)"/>
<path d="M0 0 C1.47256616 0.01306471 2.94516286 0.02302477 4.41777039 0.03001404 C8.28358776 0.05667282 12.14754802 0.12537062 16.01263428 0.20294189 C19.96064124 0.27470169 23.90894997 0.30655236 27.85742188 0.34179688 C35.59719855 0.41674867 43.33544792 0.5361299 51.07421875 0.68359375 C50.14609952 2.09821763 49.21490471 3.51082386 48.2824707 4.92260742 C47.76425247 5.70947433 47.24603424 6.49634125 46.71211243 7.30705261 C44.12370353 11.06276661 41.204535 14.51599985 38.26171875 17.99609375 C33.43697793 23.77492927 28.80263655 29.61560177 24.3359375 35.67578125 C21.71805263 39.15725162 18.99887148 42.54571673 16.26171875 45.93359375 C12.10536768 51.08234869 8.07685387 56.30522402 4.13671875 61.62109375 C-0.4961985 67.86738139 -5.32005984 73.92566698 -10.25683594 79.93383789 C-14.39931004 84.98979678 -18.35039299 90.15792588 -22.21875 95.42578125 C-23.92578125 97.68359375 -23.92578125 97.68359375 -25.92578125 99.68359375 C-28.63394165 99.92410278 -28.63394165 99.92410278 -32.11962891 99.91064453 C-33.42082672 99.91049347 -34.72202454 99.91034241 -36.06265259 99.91018677 C-37.48838452 99.89997268 -38.9141149 99.88954067 -40.33984375 99.87890625 C-41.79429938 99.8751767 -43.24875752 99.87232945 -44.70321655 99.87033081 C-48.53376181 99.86268975 -52.36415571 99.84303732 -56.19464111 99.82092285 C-60.10239616 99.80047453 -64.01017564 99.79133127 -67.91796875 99.78125 C-75.58730863 99.75979177 -83.25652374 99.72565026 -90.92578125 99.68359375 C-89.98708647 98.25959703 -89.04623174 96.837024 -88.10449219 95.41503906 C-87.58079041 94.6226886 -87.05708862 93.83033813 -86.51751709 93.01397705 C-84.23857489 89.67748822 -81.73550798 86.55655423 -79.17578125 83.43359375 C-78.11879681 82.12840921 -77.06282337 80.82240534 -76.0078125 79.515625 C-75.48783691 78.87189941 -74.96786133 78.22817383 -74.43212891 77.56494141 C-72.20272105 74.78053024 -70.02872478 71.95537324 -67.86328125 69.12109375 C-62.15761087 61.66158912 -56.34371407 54.28871076 -50.53027344 46.91308594 C-45.21603655 40.16880913 -39.92706196 33.40784396 -34.70605469 26.59106445 C-31.1050544 21.89675014 -27.4485061 17.24711327 -23.76757812 12.61523438 C-23.33896484 12.07318359 -22.91035156 11.53113281 -22.46875 10.97265625 C-22.05797211 10.47162888 -21.64719421 9.9706015 -21.22396851 9.45439148 C-19.87776985 7.74847368 -19.87776985 7.74847368 -19.10842896 5.85517883 C-15.32893108 -1.77445166 -7.35668528 -0.19123134 0 0 Z " fill="#213864" transform="translate(685.92578125,357.31640625)"/>
<path d="M0 0 C8.39716876 -0.37284114 16.79081762 -0.65599917 25.1942482 -0.82899475 C29.09799115 -0.91208946 32.99602809 -1.02443833 36.89648438 -1.20703125 C62.00191269 -2.3516594 62.00191269 -2.3516594 68.51971436 1.48208618 C72.4442176 5.07268896 74.84429528 9.28028267 77.05883789 14.07086182 C78.31774162 16.65128789 79.98994759 18.67821523 81.8828125 20.82421875 C82.42437988 21.47277832 82.96594727 22.12133789 83.52392578 22.78955078 C84.05228027 23.41587402 84.58063477 24.04219727 85.125 24.6875 C90.06609574 30.61708645 94.84758052 36.63054632 99.51953125 42.7734375 C102.22361909 46.31432355 105.01686037 49.78125219 107.8125 53.25 C112.73814045 59.36488988 117.51571255 65.58165799 122.25585938 71.84106445 C126.41900467 77.31119963 130.77234363 82.57948143 135.26953125 87.77734375 C137 90 137 90 137 92 C128.60283124 92.37284114 120.20918238 92.65599917 111.8057518 92.82899475 C107.90200885 92.91208946 104.00397191 93.02443833 100.10351562 93.20703125 C74.9899617 94.35211686 74.9899617 94.35211686 68.472229 90.50985718 C64.54344412 86.91376645 62.12787648 82.71008755 59.91967773 77.90765381 C58.72204523 75.4234486 57.1459453 73.46390609 55.3359375 71.39453125 C54.8394873 70.79108887 54.34303711 70.18764648 53.83154297 69.56591797 C53.35088379 68.98729004 52.87022461 68.40866211 52.375 67.8125 C48.46752829 63.05410415 44.61257751 58.26818232 40.875 53.375 C33.56068927 43.79925986 26.11444247 34.33912437 18.5 25 C14.22379565 19.74993076 9.9602233 14.49070843 5.75 9.1875 C5.28400391 8.60677734 4.81800781 8.02605469 4.33789062 7.42773438 C2.38171986 4.95070725 1.00730087 3.02190262 0 0 Z " fill="#213864" transform="translate(601,549)"/>
<path d="M0 0 C18.48 0 36.96 0 56 0 C56 32.67 56 65.34 56 99 C37.52 99 19.04 99 0 99 C0 66.33 0 33.66 0 0 Z " fill="#203A65" transform="translate(524,358)"/>
<path d="M0 0 C18.48 0 36.96 0 56 0 C56 30.36 56 60.72 56 92 C37.52 92 19.04 92 0 92 C0 61.64 0 31.28 0 0 Z " fill="#203964" transform="translate(524,549)"/>
<path d="M0 0 C6.42281595 2.83072435 9.92470126 6.99694939 13.0703125 13.1953125 C15.06194205 19.17020114 14.4610094 24.61118614 12.03515625 30.3125 C9.17980481 35.88448136 5.53989367 39.2301939 -0.2109375 41.4921875 C-7.79072825 43.45247821 -15.47184617 43.50861123 -22.4921875 39.8203125 C-27.55981064 36.24709553 -30.25873095 32.1439178 -31.9296875 26.1953125 C-32.84603259 20.26961422 -32.8688546 15.04051617 -29.8046875 9.7578125 C-22.29040886 -0.48119041 -12.32019928 -3.38394807 0 0 Z " fill="#09BECE" transform="translate(467.9296875,482.8046875)"/>
<path d="M0 0 C3.3 0 6.6 0 10 0 C10.33 5.94 10.66 11.88 11 18 C19.634039 9.54282747 19.634039 9.54282747 27 0 C29.8203125 -0.29296875 29.8203125 -0.29296875 33.125 -0.1875 C34.76855469 -0.14689453 34.76855469 -0.14689453 36.4453125 -0.10546875 C37.70988281 -0.05326172 37.70988281 -0.05326172 39 0 C33.81643758 6.13842918 28.42287737 12.07341663 23 18 C26.40936347 24.31394255 30.54062397 29.8186651 34.9296875 35.47851562 C35.45304687 36.16236328 35.97640625 36.84621094 36.515625 37.55078125 C36.99290039 38.16606689 37.47017578 38.78135254 37.96191406 39.4152832 C39 41 39 41 39 43 C34.9743413 44.1411316 32.00233829 44.31003131 28 43 C23.11317668 38.48260311 19.53209567 32.59628327 16 27 C12.76584102 29.12515709 11.19475005 30.16935337 10.29296875 34.015625 C10.25816406 35.08296875 10.22335937 36.1503125 10.1875 37.25 C10.11595703 38.86648438 10.11595703 38.86648438 10.04296875 40.515625 C10.02169922 41.74539063 10.02169922 41.74539063 10 43 C6.7 43 3.4 43 0 43 C0 28.81 0 14.62 0 0 Z " fill="#14C0D0" transform="translate(385,482)"/>
<path d="M0 0 C2.97 0 5.94 0 9 0 C9 5.61 9 11.22 9 17 C15.27 17 21.54 17 28 17 C28 11.39 28 5.78 28 0 C30.97 0 33.94 0 37 0 C37 13.86 37 27.72 37 42 C34.03 42 31.06 42 28 42 C28 36.39 28 30.78 28 25 C21.73 25 15.46 25 9 25 C9 30.94 9 36.88 9 43 C6.03 43 3.06 43 0 43 C0 28.81 0 14.62 0 0 Z " fill="#07BDCE" transform="translate(603,482)"/>
<path d="M0 0 C10.56 0 21.12 0 32 0 C32 2.64 32 5.28 32 8 C24.41 8 16.82 8 9 8 C9 11.3 9 14.6 9 18 C15.6 18 22.2 18 29 18 C29 20.31 29 22.62 29 25 C22.4 25 15.8 25 9 25 C9 28.3 9 31.6 9 35 C16.92 35 24.84 35 33 35 C33 37.64 33 40.28 33 43 C22.11 43 11.22 43 0 43 C0 28.81 0 14.62 0 0 Z " fill="#0ABFCD" transform="translate(499,482)"/>
<path d="M0 0 C19.65916399 0 19.65916399 0 26 4 C29.68063837 7.77041004 31.1609814 10.48004501 31.3125 15.6875 C31.23528874 21.03824004 30.2997576 23.76954154 27 28 C21.1625956 32.24123913 16.63840954 32.51282448 9.5625 32.25 C6.406875 32.1675 3.25125 32.085 0 32 C0 21.44 0 10.88 0 0 Z " fill="#273B69" transform="translate(459,680)"/>
<path d="M0 0 C2.96204544 1.48654893 5.65130889 3.33915384 8.40625 5.17578125 C8.40625 5.83578125 8.40625 6.49578125 8.40625 7.17578125 C6.44697937 8.89014305 4.44744788 10.55983293 2.40625 12.17578125 C0.9521875 11.18578125 0.9521875 11.18578125 -0.53125 10.17578125 C-4.84937071 7.71454003 -8.71991939 7.40767286 -13.59375 8.17578125 C-17.22842079 9.79978309 -18.36783696 10.83691169 -20.59375 14.17578125 C-20.91181878 17.01243454 -20.91181878 17.01243454 -20.84375 20.11328125 C-20.84890625 21.15355469 -20.8540625 22.19382812 -20.859375 23.265625 C-20.49367012 27.27224467 -19.59123169 29.32943315 -16.53125 31.92578125 C-12.4856884 33.64729683 -8.93247071 33.78902799 -4.59375 33.17578125 C-2.58623185 32.19096103 -0.58440541 31.19425611 1.40625 30.17578125 C4.92662919 31.08102161 6.43831294 33.22387565 8.40625 36.17578125 C7.13793307 36.99220379 5.86649069 37.8037723 4.59375 38.61328125 C3.53220703 39.29197266 3.53220703 39.29197266 2.44921875 39.984375 C-3.32453883 43.35148028 -10.13576802 42.80582827 -16.59375 42.17578125 C-22.91877023 39.90425696 -27.83228295 34.87921904 -30.69921875 28.8515625 C-32.50960234 23.43622295 -32.72745635 17.21755588 -30.71875 11.828125 C-24.04369978 0.43223335 -12.90894906 -4.10209074 0 0 Z " fill="#0ABECE" transform="translate(577.59375,482.82421875)"/>
<path d="M0 0 C49.83 0 99.66 0 151 0 C151 1.65 151 3.3 151 5 C101.17 5 51.34 5 0 5 C0 3.35 0 1.7 0 0 Z " fill="#2E4268" transform="translate(290,695)"/>
<path d="M0 0 C49.5 0 99 0 150 0 C150 1.32 150 2.64 150 4 C100.5 4 51 4 0 4 C0 2.68 0 1.36 0 0 Z " fill="#1C315C" transform="translate(583,695)"/>
<path d="M0 0 C4.40830916 2.16407904 7.12843553 4.42506462 9 9 C9.54066369 14.67696875 9.10049582 18.06217333 6 23 C3.65760686 25.83039171 1.66339664 26.80672915 -2.05078125 27.23828125 C-7.5349938 27.41824677 -10.80703305 26.89346931 -15 23 C-17.68040759 18.26461326 -18.68913499 14.41463204 -18 9 C-13.61347613 0.85359853 -8.96523534 -1.27467801 0 0 Z " fill="#F7FCFC" transform="translate(463,490)"/>
<path d="M0 0 C2.97 0 5.94 0 9 0 C9.54527344 0.99257813 10.09054687 1.98515625 10.65234375 3.0078125 C11.41317137 4.38070256 12.17496336 5.75305844 12.9375 7.125 C13.53461792 8.20358276 13.53461792 8.20358276 14.14379883 9.30395508 C16.19676942 12.96489167 18.30827107 16.53398991 20.671875 20.00390625 C21.30428101 20.93662354 21.30428101 20.93662354 21.94946289 21.88818359 C22.76092934 23.0675383 23.58785039 24.23643971 24.43139648 25.39306641 C25.54296875 27.01171875 25.54296875 27.01171875 27 30 C25.85260424 33.80018106 23.88985057 37.01598704 21.8125 40.37890625 C21.19632813 41.38244141 20.58015625 42.38597656 19.9453125 43.41992188 C19.30335938 44.45697266 18.66140625 45.49402344 18 46.5625 C16.72775287 48.62543084 15.45686309 50.68919955 14.1875 52.75390625 C13.34251953 54.12011108 13.34251953 54.12011108 12.48046875 55.51391602 C11.2250625 57.62206276 10.09729919 59.80540162 9 62 C5.7 62 2.4 62 -1 62 C0.56346669 58.87306663 2.19215071 55.90625692 3.96875 52.90234375 C4.53980469 51.93619141 5.11085938 50.97003906 5.69921875 49.97460938 C6.29347656 48.97236328 6.88773438 47.97011719 7.5 46.9375 C8.09425781 45.93138672 8.68851563 44.92527344 9.30078125 43.88867188 C13.72995722 36.40506417 13.72995722 36.40506417 16 33 C15.68161535 28.85797137 13.99427676 25.91833556 11.875 22.40234375 C11.25109375 21.35369141 10.6271875 20.30503906 9.984375 19.22460938 C9.32953125 18.13986328 8.6746875 17.05511719 8 15.9375 C6.7037882 13.78267547 5.41192423 11.62522793 4.125 9.46484375 C3.55007813 8.512146 2.97515625 7.55944824 2.3828125 6.57788086 C1 4 1 4 0 0 Z " fill="#0EBECF" transform="translate(656,473)"/>
<path d="M0 0 C1.30517578 0.13921875 1.30517578 0.13921875 2.63671875 0.28125 C3.96123047 0.38953125 3.96123047 0.38953125 5.3125 0.5 C6.30830078 0.63921875 6.30830078 0.63921875 7.32421875 0.78125 C7.32421875 1.44125 7.32421875 2.10125 7.32421875 2.78125 C6.66421875 2.78125 6.00421875 2.78125 5.32421875 2.78125 C5.06286133 3.49603516 4.80150391 4.21082031 4.53222656 4.94726562 C3.26847387 7.9120274 1.75193631 10.42444303 -0.00390625 13.125 C-0.638125 14.12402344 -1.27234375 15.12304688 -1.92578125 16.15234375 C-3.26366562 18.24540114 -4.61273685 20.33134816 -5.97265625 22.41015625 C-6.60171875 23.40917969 -7.23078125 24.40820312 -7.87890625 25.4375 C-8.46317383 26.34306641 -9.04744141 27.24863281 -9.64941406 28.18164062 C-10.95923543 30.74622663 -10.95923543 30.74622663 -9.98852539 33.36987305 C-9.55531982 34.16562744 -9.12211426 34.96138184 -8.67578125 35.78125 C-8.32410889 36.44165283 -7.97243652 37.10205566 -7.61010742 37.7824707 C-7.23345947 38.41757568 -6.85681152 39.05268066 -6.46875 39.70703125 C-6.04658203 40.42181641 -5.62441406 41.13660156 -5.18945312 41.87304688 C-4.75181641 42.60587891 -4.31417969 43.33871094 -3.86328125 44.09375 C-3.43724609 44.81498047 -3.01121094 45.53621094 -2.57226562 46.27929688 C0.00395473 50.62496358 2.65640815 54.90744554 5.4128418 59.14135742 C6.32421875 60.78125 6.32421875 60.78125 6.32421875 62.78125 C3.15778398 63.38116424 0.47201627 63.55165401 -2.67578125 62.78125 C-5.46948011 60.05225219 -7.08792065 56.79462239 -8.86328125 53.34375 C-9.83374313 51.57301434 -10.80639094 49.8034749 -11.78125 48.03515625 C-12.24837402 47.15875488 -12.71549805 46.28235352 -13.19677734 45.37939453 C-15.10805993 42.02187237 -17.33580269 38.94564008 -19.6652832 35.86694336 C-21.02745079 33.05539523 -20.62958186 31.7201712 -19.67578125 28.78125 C-18.54003906 26.50463867 -18.54003906 26.50463867 -17.12890625 24.19921875 C-16.61328125 23.34908203 -16.09765625 22.49894531 -15.56640625 21.62304688 C-15.025 20.74712891 -14.48359375 19.87121094 -13.92578125 18.96875 C-13.39984375 18.10443359 -12.87390625 17.24011719 -12.33203125 16.34960938 C-11.28889944 14.63902813 -10.2371827 12.93364946 -9.17651367 11.23388672 C-8.1997994 9.63764927 -7.25751591 8.01965563 -6.35668945 6.37939453 C-3.31235487 0.96711091 -3.31235487 0.96711091 0 0 Z " fill="#0CBDCE" transform="translate(363.67578125,472.21875)"/>
<path d="M0 0 C3.76706021 1.18592636 5.27969919 1.71001871 7.375 5.0625 C7.98319448 8.18379997 8.24616045 10.98908923 7.375 14.0625 C6.55062943 14.64151062 5.72625885 15.22052124 4.87690735 15.81707764 C2.13780299 17.83942579 2.13780299 17.83942579 1.73576355 20.89727783 C1.72910172 21.98981873 1.72243988 23.08235962 1.71557617 24.20800781 C1.69593307 25.44899231 1.67628998 26.68997681 1.65605164 27.96856689 C1.65949481 29.31758772 1.66347986 30.66660725 1.66796875 32.015625 C1.65485015 33.39998548 1.6395454 34.78432683 1.62214661 36.16864014 C1.58230104 39.80519713 1.57210662 43.44125339 1.56811523 47.07800293 C1.55878271 50.79173976 1.52136861 54.50518249 1.48632812 58.21875 C1.4217572 65.50000249 1.38851335 72.78095475 1.375 80.0625 C-0.275 80.0625 -1.925 80.0625 -3.625 80.0625 C-3.62642502 79.29908295 -3.62785004 78.53566589 -3.62931824 77.74911499 C-3.64717901 70.53972923 -3.6888822 63.33105566 -3.75709057 56.12198448 C-3.79132073 52.41603953 -3.8164642 48.71050503 -3.82055664 45.00439453 C-3.82484839 41.42487419 -3.85338107 37.84627911 -3.89843178 34.26704788 C-3.91137925 32.90442935 -3.91572415 31.54169993 -3.91115379 30.17902756 C-3.56754632 21.70772337 -3.56754632 21.70772337 -7.1262207 14.40087891 C-7.95081787 13.62921387 -8.77541504 12.85754883 -9.625 12.0625 C-10.3125 8.5 -10.3125 8.5 -9.625 5.0625 C-6.48302168 1.38408636 -4.88568266 0.08423591 0 0 Z " fill="#0CA1B8" transform="translate(569.625,376.9375)"/>
<path d="M0 0 C0.33 0 0.66 0 1 0 C1 23.76 1 47.52 1 72 C-1.64 72 -4.28 72 -7 72 C-7.11589516 64.11576556 -7.20471439 56.23188747 -7.25906086 48.34701157 C-7.28514591 44.68562466 -7.32052148 41.02482084 -7.37719727 37.36376953 C-7.43155986 33.82999196 -7.46142876 30.29677486 -7.47438622 26.76261139 C-7.48810967 24.75941972 -7.52713702 22.75645332 -7.56648254 20.75360107 C-7.5668602 19.53263733 -7.56723785 18.31167358 -7.56762695 17.05371094 C-7.57873001 15.97893494 -7.58983307 14.90415894 -7.60127258 13.79681396 C-6.79654024 10.05360878 -5.0244495 9.20432462 -2 7 C-0.64164329 3.37526891 -0.64164329 3.37526891 0 0 Z " fill="#1E335E" transform="translate(578,384)"/>
<path d="M0 0 C2.97 0 5.94 0 9 0 C9.04632557 7.7711927 9.08187029 15.54235309 9.10362434 23.31364918 C9.11406482 26.92212105 9.12822873 30.53049849 9.15087891 34.13891602 C9.17259804 37.62076942 9.18456664 41.10253195 9.18975449 44.58444786 C9.19525227 46.56038283 9.21086668 48.53628122 9.22659302 50.51216125 C9.22674408 51.71317978 9.22689514 52.9141983 9.22705078 54.15161133 C9.231492 55.21084305 9.23593323 56.27007477 9.24050903 57.36140442 C9 60 9 60 7 63 C6.74476563 62.04287109 6.74476563 62.04287109 6.484375 61.06640625 C6.24203125 60.24011719 5.9996875 59.41382813 5.75 58.5625 C5.51796875 57.73878906 5.2859375 56.91507813 5.046875 56.06640625 C4.70140625 55.38449219 4.3559375 54.70257812 4 54 C2.68 53.67 1.36 53.34 0 53 C0 35.51 0 18.02 0 0 Z " fill="#203661" transform="translate(571,549)"/>
<path d="M0 0 C1.32 0 2.64 0 4 0 C4 21.12 4 42.24 4 64 C5.65 64.66 7.3 65.32 9 66 C11.34168764 69.51253146 11.49623677 70.86469356 11 75 C9.20006226 77.69990662 7.916227 79.5418865 5 81 C1.12785818 81.43023798 -0.52496371 81.31669086 -3.8125 79.125 C-6.38107884 76.62980912 -6.90422618 75.71830363 -7.375 72.1875 C-6.87781694 67.96144401 -5.24443974 66.62645122 -2 64 C-1.34 64 -0.68 64 0 64 C0 42.88 0 21.76 0 0 Z " fill="#0BC2D1" transform="translate(342,549)"/>
<path d="M0 0 C7.59 0 15.18 0 23 0 C23 1.65 23 3.3 23 5 C17.72 5 12.44 5 7 5 C7 7.31 7 9.62 7 12 C11.95 12 16.9 12 22 12 C22 13.98 22 15.96 22 18 C17.05 18 12.1 18 7 18 C7 20.31 7 22.62 7 25 C12.61 25 18.22 25 24 25 C24 26.98 24 28.96 24 31 C16.08 31 8.16 31 0 31 C0 20.77 0 10.54 0 0 Z " fill="#293C69" transform="translate(502,681)"/>
<path d="M0 0 C1.32 0 2.64 0 4 0 C4 18.48 4 36.96 4 56 C5.65 56.66 7.3 57.32 9 58 C11.34168764 61.51253146 11.49623677 62.86469356 11 67 C9.20006226 69.69990662 7.916227 71.5418865 5 73 C1.12785818 73.43023798 -0.52496371 73.31669086 -3.8125 71.125 C-6.58364773 68.43302791 -6.9274104 67.549607 -7.4375 63.6875 C-7.293125 62.470625 -7.14875 61.25375 -7 60 C-6.01757324 59.35716064 -5.03514648 58.71432129 -4.02294922 58.05200195 C-1.7258909 56.24591955 -1.07240369 55.3241905 -0.42657471 52.4324646 C-0.20873404 49.10364725 -0.16954336 45.81640263 -0.1953125 42.48046875 C-0.17475296 40.65990715 -0.17475296 40.65990715 -0.15377808 38.80256653 C-0.11642282 34.93050253 -0.12019725 31.0597189 -0.125 27.1875 C-0.10687736 24.56052678 -0.08607606 21.93357057 -0.0625 19.30664062 C-0.0105967 12.87096807 0.00755276 6.43586259 0 0 Z " fill="#06CADA" transform="translate(454,549)"/>
<path d="M0 0 C1.32 0 2.64 0 4 0 C4 16.5 4 33 4 50 C5.32 50.33 6.64 50.66 8 51 C10.38160268 53.29654544 10.9537685 54.63785328 11.375 57.9375 C10.9543466 61.37283613 10.05181308 63.23794392 8 66 C4.75558709 67.62220646 1.49459297 67.70159132 -2 67 C-5.28826203 64.12277073 -6.74931432 62.22835983 -7.625 57.9375 C-6.79105473 54.01795722 -5.07080732 52.48589164 -2 50 C-1.34 50 -0.68 50 0 50 C0 33.5 0 17 0 0 Z " fill="#0BBACC" transform="translate(533,549)"/>
<path d="M0 0 C1.32 0 2.64 0 4 0 C4 16.17 4 32.34 4 49 C5.65 49.66 7.3 50.32 9 51 C11.34168764 54.51253146 11.49623677 55.86469356 11 60 C9.20006226 62.69990662 7.916227 64.5418865 5 66 C-1.26519337 66.5801105 -1.26519337 66.5801105 -4.375 64.125 C-7.06463552 60.60778432 -7.43467763 58.43371186 -7 54 C-5.1875 51.125 -5.1875 51.125 -3 49 C-2.01 49 -1.02 49 0 49 C0 32.83 0 16.66 0 0 Z " fill="#09CCD7" transform="translate(309,549)"/>
<path d="M0 0 C2.69990662 1.79993774 4.5418865 3.083773 6 6 C6.43023798 9.87214182 6.31669086 11.52496371 4.125 14.8125 C2 17 2 17 0 18 C-0.33 33.51 -0.66 49.02 -1 65 C-2.32 65 -3.64 65 -5 65 C-5.00142502 64.42006287 -5.00285004 63.84012573 -5.00431824 63.24261475 C-5.02400149 57.20764847 -5.07824495 51.17369552 -5.15258789 45.13916016 C-5.1757881 42.88695546 -5.19016832 40.63464196 -5.19555664 38.38232422 C-5.20483112 35.14481643 -5.24579056 31.90902482 -5.29296875 28.671875 C-5.2890361 27.66445251 -5.28510345 26.65703003 -5.28105164 25.61907959 C-5.27868085 19.93334169 -5.27868085 19.93334169 -8.48168945 15.45800781 C-9.31273193 14.97686523 -10.14377441 14.49572266 -11 14 C-12.42662219 11.14675563 -12.31033868 9.16545451 -12 6 C-8.54235344 0.81353016 -6.24330406 -0.61208863 0 0 Z " fill="#0AC6D5" transform="translate(538,392)"/>
<path d="M0 0 C3.73152858 1.17474048 5.26415485 1.76958156 7.375 5.0625 C8.08179772 8.97398286 7.91755238 12.0290669 6.0625 15.5625 C4.375 17.0625 4.375 17.0625 1.375 17.0625 C1.375 32.9025 1.375 48.7425 1.375 65.0625 C0.055 65.0625 -1.265 65.0625 -2.625 65.0625 C-2.62420441 64.48478348 -2.62340881 63.90706696 -2.62258911 63.31184387 C-2.62014931 57.29288369 -2.6593625 51.27521221 -2.72265625 45.2565918 C-2.74081254 43.01121001 -2.74838544 40.76571648 -2.74511719 38.52026367 C-2.74225916 35.28997406 -2.77758551 32.06200011 -2.8203125 28.83203125 C-2.81121857 27.82977005 -2.80212463 26.82750885 -2.79275513 25.7948761 C-2.77392819 20.7246737 -2.77392819 20.7246737 -4.98608398 16.35751343 C-6.79214676 14.83345359 -6.79214676 14.83345359 -9.625 13.0625 C-10.71398007 10.24396335 -10.48837969 7.94236379 -9.625 5.0625 C-6.49597232 1.32293034 -4.91526448 0.08474594 0 0 Z " fill="#0DBCCA" transform="translate(311.625,391.9375)"/>
<path d="M0 0 C0.33 0 0.66 0 1 0 C1.00410889 0.73114014 1.00821777 1.46228027 1.01245117 2.21557617 C1.04542209 5.54036307 1.11607147 8.86332616 1.1875 12.1875 C1.19330078 13.33798828 1.19910156 14.48847656 1.20507812 15.67382812 C1.13756151 22.56558914 1.13756151 22.56558914 4.48828125 28.23828125 C5.31714844 28.81964844 6.14601563 29.40101563 7 30 C8 31 8 31 8.12025452 32.86659241 C8.1169236 34.08903908 8.1169236 34.08903908 8.11352539 35.33618164 C8.11344986 36.2570607 8.11337433 37.17793976 8.11329651 38.12672424 C8.10813522 39.12775681 8.10297394 40.12878937 8.09765625 41.16015625 C8.0962413 42.17975937 8.09482635 43.19936249 8.09336853 44.24986267 C8.08775097 47.52077107 8.0751955 50.79161213 8.0625 54.0625 C8.05748726 56.27408756 8.05292396 58.48567618 8.04882812 60.69726562 C8.03777584 66.13153357 8.02102063 71.56576197 8 77 C5.36 77 2.72 77 0 77 C0 51.59 0 26.18 0 0 Z " fill="#19355E" transform="translate(525,379)"/>
<path d="M0 0 C2.64 0 5.28 0 8 0 C8.12659286 6.92322302 8.21426365 13.84614862 8.2746582 20.77026367 C8.2998299 23.12649692 8.33396993 25.48265188 8.37719727 27.83862305 C8.43772985 31.22203866 8.46618345 34.60442372 8.48828125 37.98828125 C8.51408768 39.04461258 8.5398941 40.10094391 8.56648254 41.18928528 C8.56752124 43.88683452 8.54223661 46.35731272 8 49 C5.52734375 51.03320312 5.52734375 51.03320312 3 52 C1.97726136 54.47061919 1.97726136 54.47061919 1.6875 57.1875 C1.54699219 58.08855469 1.40648437 58.98960937 1.26171875 59.91796875 C1.17535156 60.60503906 1.08898437 61.29210937 1 62 C0.67 62 0.34 62 0 62 C0 41.54 0 21.08 0 0 Z " fill="#1A355D" transform="translate(525,550)"/>
<path d="M0 0 C2.31 0 4.62 0 7 0 C13.33485194 13.6332574 13.33485194 13.6332574 16 20 C19.3850895 13.48056836 22.23345343 6.80298338 25 0 C27.31 0 29.62 0 32 0 C29.76188601 7.00406547 27.12994735 13.77276643 24.3125 20.5625 C23.89677734 21.57119141 23.48105469 22.57988281 23.05273438 23.61914062 C22.03784021 26.0805506 21.02021747 28.54079283 20 31 C17.36 31 14.72 31 12 31 C10.28651265 26.90844133 8.57763792 22.81499689 6.87304688 18.71972656 C6.2922869 17.32629239 5.71026074 15.93338525 5.12695312 14.54101562 C4.28964617 12.54173168 3.45688311 10.54060824 2.625 8.5390625 C2.12226562 7.33459473 1.61953125 6.13012695 1.1015625 4.88916016 C0 2 0 2 0 0 Z " fill="#273965" transform="translate(535,681)"/>
<path d="M0 0 C1.65 0 3.3 0 5 0 C5 17.49 5 34.98 5 53 C6.32 53.33 7.64 53.66 9 54 C11.45893906 57.6884086 11.6821084 60.71739539 11 65 C9.4375 67.4375 9.4375 67.4375 7 69 C3.25 69.75 3.25 69.75 0 70 C0.33 68.68 0.66 67.36 1 66 C2.65 66 4.3 66 6 66 C6 63.36 6 60.72 6 58 C1.03079316 56.22240124 1.03079316 56.22240124 -4 57 C-3.34 55.68 -2.68 54.36 -2 53 C-1.34 53 -0.68 53 0 53 C0 35.51 0 18.02 0 0 Z " fill="#08B2CA" transform="translate(566,549)"/>
<path d="M0 0 C0 0.99 0 1.98 0 3 C-1.98 3.66 -3.96 4.32 -6 5 C-6.67958603 7.39719432 -6.67958603 7.39719432 -7 10 C-4.3534665 12.6465335 -1.43778736 13.59941997 2 15 C1.67 15.66 1.34 16.32 1 17 C0.34 17 -0.32 17 -1 17 C-1 37.13 -1 57.26 -1 78 C-2.32 78 -3.64 78 -5 78 C-5 57.87 -5 37.74 -5 17 C-6.32 16.34 -7.64 15.68 -9 15 C-11.31709965 12.68290035 -11.94651251 11.31423899 -12.5 8.0625 C-11.32174016 0.84565848 -6.67897455 -0.65480143 0 0 Z " fill="#0AB9C8" transform="translate(347,379)"/>
<path d="M0 0 C1.32 0 2.64 0 4 0 C4 8.25 4 16.5 4 25 C5.32 25.33 6.64 25.66 8 26 C10.56868015 29.01155604 11.00742102 30.57700208 10.9375 34.5625 C9.89167954 38.39717502 9.34238038 39.85744848 6 42 C2.25509462 42.67669748 -0.89034263 42.4267913 -4.4375 41.0625 C-6.97329433 37.71525148 -7.32648324 34.1354544 -7 30 C-5.23496686 27.07856583 -4.04152365 25.52076183 -1 24 C-0.67 16.08 -0.34 8.16 0 0 Z " fill="#0AB8CA" transform="translate(326,549)"/>
<path d="M0 0 C1.32 0 2.64 0 4 0 C3.99887207 0.70084717 3.99774414 1.40169434 3.99658203 2.1237793 C4.00872008 5.31265544 4.06639742 8.49915327 4.125 11.6875 C4.12242187 12.79029297 4.11984375 13.89308594 4.1171875 15.02929688 C4.05264627 20.75671241 4.05264627 20.75671241 6.37158203 25.76220703 C7.85347724 26.92369246 9.42361692 27.97039901 11 29 C11.72840345 33.07905929 11.37452424 35.19988003 9.625 38.9375 C6.14405266 41.67253005 3.66040166 41.55990917 -0.66015625 41.56640625 C-3 41 -3 41 -4.77734375 39.24609375 C-6.11222454 36.7938367 -6.46197132 35.27609358 -6.5 32.5 C-6.5309375 31.7471875 -6.561875 30.994375 -6.59375 30.21875 C-6 28 -6 28 -3.51953125 26.484375 C0.06169885 22.95311555 -0.33742914 19.99946934 -0.20507812 15.1171875 C-0.19927734 14.00601563 -0.19347656 12.89484375 -0.1875 11.75 C-0.16236328 10.62335937 -0.13722656 9.49671875 -0.11132812 8.3359375 C-0.05245108 5.55694092 -0.01617475 2.77951967 0 0 Z " fill="#08BBD0" transform="translate(550,549)"/>
<path d="M0 0 C1.32 0 2.64 0 4 0 C4.00410889 0.59014893 4.00821777 1.18029785 4.01245117 1.78833008 C4.04536148 4.46407016 4.11599621 7.13752475 4.1875 9.8125 C4.19330078 10.74126953 4.19910156 11.67003906 4.20507812 12.62695312 C4.28804886 15.18060799 4.40915164 17.51315426 5 20 C7.34184826 22.09928449 7.34184826 22.09928449 10 23 C11.6665436 26.33308719 11.41627795 29.67547926 10.3125 33.1875 C8.00823937 36.3695742 5.33528748 37.76632469 1.5 38.4375 C-1.87447633 37.84696664 -3.53879997 36.32446669 -6 34 C-7.56935594 30.86128812 -7.35201103 28.46144178 -7 25 C-4.625 22.0625 -4.625 22.0625 -2 20 C-1.34 20 -0.68 20 0 20 C0 13.4 0 6.8 0 0 Z " fill="#09C1D4" transform="translate(476,549)"/>
<path d="M0 0 C3.30504612 2.66015907 3.88272732 4.34327302 4.625 8.5 C4.315625 10.2325 4.315625 10.2325 4 12 C3.01515625 12.66386719 2.0303125 13.32773437 1.015625 14.01171875 C-1.22342072 15.76664648 -1.91820696 16.65668716 -2.58642578 19.46142578 C-2.81415116 22.42389353 -2.88260357 25.34140505 -2.875 28.3125 C-2.895625 29.33923828 -2.91625 30.36597656 -2.9375 31.42382812 C-2.98449913 33.95003129 -3.00445095 36.47344998 -3 39 C-4.32 39 -5.64 39 -7 39 C-7 31.74 -7 24.48 -7 17 C-8.32 16.34 -9.64 15.68 -11 15 C-13.46496064 11.30255904 -13.66459751 8.28967484 -13 4 C-10.11972098 -1.0091809 -5.24678994 -1.09749368 0 0 Z " fill="#0BAEC4" transform="translate(557,418)"/>
<path d="M0 0 C2.91963173 1.98783437 4.61102978 3.4314697 5.48046875 6.9375 C5.64382215 9.26859715 5.72151631 10.75905521 5 13 C3.76830078 14.04220703 3.76830078 14.04220703 2.51171875 15.10546875 C-1.11654103 19.28671369 -0.77834903 22.94320831 -0.8125 28.3125 C-0.83763672 29.24384766 -0.86277344 30.17519531 -0.88867188 31.13476562 C-0.94735998 33.42360186 -0.98377168 35.71053426 -1 38 C-2.32 38 -3.64 38 -5 38 C-5 31.07 -5 24.14 -5 17 C-6.32 16.67 -7.64 16.34 -9 16 C-11.56868015 12.98844396 -12.00742102 11.42299792 -11.9375 7.4375 C-10.10362468 0.71329049 -6.88513187 -1.08712608 0 0 Z " fill="#0ABDD4" transform="translate(331,419)"/>
<path d="M0 0 C10.17647059 0 10.17647059 0 15 4 C17 6 17 6 17.375 9.8125 C17.28397523 13.98446858 16.03050306 16.05862938 13 19 C9.14854957 20.92572521 4.19956748 20.04883218 0 20 C0 13.4 0 6.8 0 0 Z " fill="#F6F7F8" transform="translate(466,686)"/>
<path d="M0 0 C1.32 0 2.64 0 4 0 C4.33 17.16 4.66 34.32 5 52 C2.525 52.495 2.525 52.495 0 53 C0 35.51 0 18.02 0 0 Z " fill="#07C3D3" transform="translate(533,549)"/>
<path d="M0 0 C4.875 1.875 4.875 1.875 6 3 C6.43784542 6.85303968 6.30585252 8.54122122 4.125 11.8125 C1.61855093 14.39266816 0.74538327 14.91717964 -2.8125 15.3125 C-6.7307645 14.92835642 -8.21293267 13.70743683 -11 11 C-12.4783226 8.04335481 -12.06032783 5.25770263 -12 2 C-10.02 2.99 -10.02 2.99 -8 4 C-7.608125 3.484375 -7.21625 2.96875 -6.8125 2.4375 C-6.214375 1.963125 -5.61625 1.48875 -5 1 C-2.3125 1.3125 -2.3125 1.3125 0 2 C0 1.34 0 0.68 0 0 Z " fill="#07B9CE" transform="translate(459,607)"/>
<path d="M0 0 C0 20.46 0 40.92 0 62 C-0.99 62 -1.98 62 -3 62 C-3 41.87 -3 21.74 -3 1 C-1 0 -1 0 0 0 Z " fill="#04C1D6" transform="translate(570,395)"/>
<path d="M0 0 C3.10622639 0.93772872 4.42197915 1.4422365 6.3125 4 C5.9825 4.66 5.6525 5.32 5.3125 6 C4.6525 6 3.9925 6 3.3125 6 C3.333125 6.969375 3.35375 7.93875 3.375 8.9375 C3.3125 12 3.3125 12 2.3125 13 C-3.21691176 13.23529412 -3.21691176 13.23529412 -5.6875 12 C-5.6875 12.66 -5.6875 13.32 -5.6875 14 C-7.0075 13.67 -8.3275 13.34 -9.6875 13 C-9.98547657 10.06989703 -10.18833081 7.85737154 -9.6875 5 C-6.52327101 1.21836048 -4.97503476 0 0 0 Z " fill="#0EBCCE" transform="translate(311.6875,392)"/>
<path d="M0 0 C0.66 0 1.32 0 2 0 C3.6665436 3.33308719 3.41627795 6.67547926 2.3125 10.1875 C0.51921416 12.66394235 -1.23595739 13.71439878 -4 15 C-6.8125 15.1875 -6.8125 15.1875 -9 15 C-8.773125 14.401875 -8.54625 13.80375 -8.3125 13.1875 C-8.209375 12.465625 -8.10625 11.74375 -8 11 C-8.495 10.54625 -8.99 10.0925 -9.5 9.625 C-9.995 9.08875 -10.49 8.5525 -11 8 C-10.56521739 2.56521739 -10.56521739 2.56521739 -9 1 C-6.33333333 1 -3.66666667 1 -1 1 C-0.67 0.67 -0.34 0.34 0 0 Z " fill="#0AB8D0" transform="translate(484,572)"/>
<path d="M0 0 C2.9375 0.1875 2.9375 0.1875 3.9375 1.1875 C4.17113881 3.03641946 4.35053635 4.89238031 4.5 6.75 C4.58378906 7.76191406 4.66757812 8.77382813 4.75390625 9.81640625 C4.81449219 10.59886719 4.87507813 11.38132812 4.9375 12.1875 C1.84576248 13.73336876 -0.65679552 13.48109521 -4.0625 13.1875 C-6.42747439 11.32041495 -7.72280715 9.86688569 -9.0625 7.1875 C-9.102492 5.18789988 -9.10596799 3.18702758 -9.0625 1.1875 C-8.44375 1.39375 -7.825 1.6 -7.1875 1.8125 C-6.135625 1.998125 -6.135625 1.998125 -5.0625 2.1875 C-3.0625 0.1875 -3.0625 0.1875 0 0 Z " fill="#04B5CB" transform="translate(311.0625,601.8125)"/>
<path d="M0 0 C0.66 0.33 1.32 0.66 2 1 C2.48828125 6.76171875 2.48828125 6.76171875 2 9 C1.1853125 9.70125 0.370625 10.4025 -0.46875 11.125 C-4.13177838 15.28547667 -3.77832653 18.93967161 -3.8125 24.3125 C-3.83763672 25.24384766 -3.86277344 26.17519531 -3.88867188 27.13476562 C-3.94735998 29.42360186 -3.98377168 31.71053426 -4 34 C-5.32 34 -6.64 34 -8 34 C-8.19632025 30.3754207 -8.38055978 26.75032733 -8.5625 23.125 C-8.64661133 21.57619141 -8.64661133 21.57619141 -8.73242188 19.99609375 C-8.78076172 19.00996094 -8.82910156 18.02382813 -8.87890625 17.0078125 C-8.9260376 16.09660645 -8.97316895 15.18540039 -9.02172852 14.24658203 C-9 12 -9 12 -8 10 C-5.4375 9.375 -5.4375 9.375 -3 9 C-2.690625 7.88625 -2.38125 6.7725 -2.0625 5.625 C-1 2 -1 2 0 0 Z " fill="#07C1D3" transform="translate(334,423)"/>
<path d="M0 0 C4.875 2.75 4.875 2.75 6 5 C6.5824233 11.29017161 6.5824233 11.29017161 4 14.4375 C3.01 15.2109375 3.01 15.2109375 2 16 C0.70590711 15.38003922 -0.58519673 14.75383647 -1.875 14.125 C-2.59429687 13.77695312 -3.31359375 13.42890625 -4.0546875 13.0703125 C-6 12 -6 12 -8 10 C-7.8125 7.5 -7.8125 7.5 -7 5 C-4 3 -4 3 0 3 C0 2.01 0 1.02 0 0 Z " fill="#07B5C6" transform="translate(347,379)"/>
<path d="M0 0 C0.33 0.33 0.66 0.66 1 1 C0.82364548 3.69082872 0.38164079 6.32851446 0 9 C-1.65 9 -3.3 9 -5 9 C-5.33 9.99 -5.66 10.98 -6 12 C-9.16115776 10.63016497 -9.9927092 10.0109362 -12 7 C-12.25 3.9375 -12.25 3.9375 -12 1 C-7.95298257 -3.04701743 -5.01779683 -1.67259894 0 0 Z " fill="#0DAEC2" transform="translate(572,606)"/>
<path d="M0 0 C0.33 0 0.66 0 1 0 C1 9.24 1 18.48 1 28 C3.475 28.99 3.475 28.99 6 30 C8.32579101 33.48868651 8.41865457 34.89718519 8 39 C6.5 41.375 6.5 41.375 5 43 C4.34 42.67 3.68 42.34 3 42 C2.5859375 39.93359375 2.5859375 39.93359375 2.375 37.4375 C2.30023438 36.61121094 2.22546875 35.78492188 2.1484375 34.93359375 C2.09945313 34.29550781 2.05046875 33.65742187 2 33 C-1.94727588 32.82057837 -4.5980513 32.90649311 -8 35 C-8.6875 33.1875 -8.6875 33.1875 -9 31 C-7.5625 29.25 -7.5625 29.25 -6 28 C-3 29 -3 29 -2 30 C-0.60439955 27.20879909 -0.78191712 24.79794308 -0.68359375 21.6796875 C-0.64169922 20.42285156 -0.59980469 19.16601562 -0.55664062 17.87109375 C-0.51732422 16.55238281 -0.47800781 15.23367188 -0.4375 13.875 C-0.39430488 12.53514249 -0.35069027 11.19529844 -0.30664062 9.85546875 C-0.20029019 6.57042185 -0.09826192 3.28529719 0 0 Z " fill="#0BC0D0" transform="translate(312,570)"/>
<path d="M0 0 C3.68776695 1.16096367 5.30753812 1.78901869 7.375 5.0625 C7.125 8.8125 7.125 8.8125 6.375 12.0625 C5.055 12.3925 3.735 12.7225 2.375 13.0625 C2.4059375 11.6084375 2.4059375 11.6084375 2.4375 10.125 C2.73118499 7.18784105 2.73118499 7.18784105 1.375 6.0625 C-1.125 5.89583333 -1.125 5.89583333 -3.625 6.0625 C-5.59322886 8.03072886 -5.28748381 11.41058709 -5.625 14.0625 C-6.945 13.4025 -8.265 12.7425 -9.625 12.0625 C-10 8.875 -10 8.875 -9.625 5.0625 C-6.48302168 1.38408636 -4.88568266 0.08423591 0 0 Z M0.375 13.0625 C1.365 13.5575 1.365 13.5575 2.375 14.0625 C1.385 14.5575 1.385 14.5575 0.375 15.0625 C0.375 14.4025 0.375 13.7425 0.375 13.0625 Z " fill="#0BB2C0" transform="translate(569.625,376.9375)"/>
<path d="M0 0 C2.0625 2.0625 2.0625 2.0625 4 5 C4 8.88582276 3.53567796 11.16434238 1.4375 14.4375 C-2.02814841 16.65906949 -4.98962727 16.69852804 -9 16 C-11.5 14.625 -11.5 14.625 -13 13 C-13 12.34 -13 11.68 -13 11 C-11.0625 10.4375 -11.0625 10.4375 -9 10 C-8.67 10.33 -8.34 10.66 -8 11 C-5.5 11.16666667 -5.5 11.16666667 -3 11 C-1.70366379 9.93354885 -1.70366379 9.93354885 -1.9375 7.4375 C-1.958125 6.633125 -1.97875 5.82875 -2 5 C-4.475 4.01 -4.475 4.01 -7 3 C-4.38058783 1.25372522 -2.96175123 0.61277612 0 0 Z " fill="#08BDD3" transform="translate(333,575)"/>
<path d="M0 0 C-1.35231187 3.02977429 -2.85480543 5.08472613 -5.23046875 7.390625 C-5.8654126 8.01396729 -6.50035645 8.63730957 -7.15454102 9.27954102 C-8.16085571 10.25491821 -8.16085571 10.25491821 -9.1875 11.25 C-13.82965071 15.81316339 -18.36685301 20.37102157 -22.5703125 25.34765625 C-24.90443349 28.04528788 -27.4476141 30.50986742 -30 33 C-30.99 32.67 -31.98 32.34 -33 32 C-24.97789025 23.37953412 -16.91123792 14.80536568 -8.625 6.4375 C-7.98941162 5.789021 -7.35382324 5.14054199 -6.69897461 4.47241211 C-2.23632892 0 -2.23632892 0 0 0 Z " fill="#274169" transform="translate(265,246)"/>
<path d="M0 0 C3.54070391 0.05074257 4.39069607 0.13610903 7.25 2.4375 C9.02408892 6.06281215 9.20470825 8.38510782 8.6875 12.375 C7.5 14.375 7.5 14.375 5.6875 15.375 C3 15.0625 3 15.0625 0.6875 14.375 C1.3475 13.385 2.0075 12.395 2.6875 11.375 C2.85449232 8.24978167 2.85449232 8.24978167 2.6875 5.375 C1.40875 5.189375 0.13 5.00375 -1.1875 4.8125 C-1.90679688 4.70808594 -2.62609375 4.60367187 -3.3671875 4.49609375 C-5.39390667 4.2065703 -5.39390667 4.2065703 -7.3125 5.375 C-5.25671458 1.1263768 -4.79713065 0.20413322 0 0 Z " fill="#06B4CD" transform="translate(552.3125,417.625)"/>
<path d="M0 0 C0.33 0 0.66 0 1 0 C1.85916096 4.44147569 2.11697565 8.62769824 2.09765625 13.1484375 C2.09553383 14.13452499 2.09553383 14.13452499 2.09336853 15.14053345 C2.08781762 17.21873731 2.07527465 19.29682927 2.0625 21.375 C2.05747864 22.79296718 2.05291685 24.21093607 2.04882812 25.62890625 C2.03786437 29.08597322 2.02063421 32.54297567 2 36 C1.01 36 0.02 36 -1 36 C-1.02468447 31.19450253 -1.04285255 26.38904182 -1.05493164 21.58349609 C-1.05996621 19.94807289 -1.06679427 18.3126542 -1.07543945 16.67724609 C-1.08754335 14.32909025 -1.093237 11.98099381 -1.09765625 9.6328125 C-1.10281754 8.89942657 -1.10797882 8.16604065 -1.11329651 7.41043091 C-1.11387171 2.22774341 -1.11387171 2.22774341 0 0 Z " fill="#05C4D8" transform="translate(344,420)"/>
<path d="M0 0 C0 0.99 0 1.98 0 3 C-1.98 3.66 -3.96 4.32 -6 5 C-6.77802187 7.3015411 -6.77802187 7.3015411 -7 10 C-5.66846734 12.30504044 -5.66846734 12.30504044 -4 14 C-5.98 14.99 -5.98 14.99 -8 16 C-10.49661422 13.3473474 -11.88398909 11.61872485 -12.5625 8 C-11.22135249 0.8472133 -6.68670659 -0.65555947 0 0 Z " fill="#0CBFD0" transform="translate(347,379)"/>
<path d="M0 0 C0.33 0 0.66 0 1 0 C1.90816798 3.86207074 2.11643845 7.43148656 2.09765625 11.39453125 C2.09443359 12.59658203 2.09121094 13.79863281 2.08789062 15.03710938 C2.07951172 16.28298828 2.07113281 17.52886719 2.0625 18.8125 C2.05798828 20.07771484 2.05347656 21.34292969 2.04882812 22.64648438 C2.03706251 25.7643711 2.02062272 28.88216133 2 32 C0 31 0 31 -1 28 C-1.09476385 25.94702157 -1.1307224 23.89110082 -1.1328125 21.8359375 C-1.13410156 20.63195312 -1.13539063 19.42796875 -1.13671875 18.1875 C-1.13285156 16.929375 -1.12898438 15.67125 -1.125 14.375 C-1.12886719 13.10914063 -1.13273437 11.84328125 -1.13671875 10.5390625 C-1.13542969 9.33765625 -1.13414062 8.13625 -1.1328125 6.8984375 C-1.13168457 5.79161621 -1.13055664 4.68479492 -1.12939453 3.54443359 C-1 1 -1 1 0 0 Z " fill="#03C9D8" transform="translate(343,552)"/>
<path d="M0 0 C21.78 0 43.56 0 66 0 C65.01 1.65 64.02 3.3 63 5 C62.34 4.01 61.68 3.02 61 2 C58.33629878 1.52170258 58.33629878 1.52170258 55.17333984 1.56762695 C53.95222504 1.54783279 52.73111023 1.52803864 51.47299194 1.50764465 C50.13564202 1.50087439 48.79829043 1.49442758 47.4609375 1.48828125 C46.09614433 1.47144107 44.73136673 1.45329172 43.36660767 1.43388367 C39.77291734 1.38630496 36.17929012 1.35654703 32.58538818 1.33044434 C28.91877777 1.30067812 25.25238504 1.25413443 21.5859375 1.20898438 C14.39073282 1.12286198 7.19551246 1.05555699 0 1 C0 0.67 0 0.34 0 0 Z " fill="#32466D" transform="translate(671,358)"/>
<path d="M0 0 C2.9375 0.1875 2.9375 0.1875 3.9375 1.1875 C4.125 4.125 4.125 4.125 3.9375 7.1875 C1.9375 9.1875 1.9375 9.1875 -0.5625 9.4375 C-3.0625 9.1875 -3.0625 9.1875 -5.0625 7.1875 C-5.3125 4.6875 -5.3125 4.6875 -5.0625 2.1875 C-3.0625 0.1875 -3.0625 0.1875 0 0 Z " fill="#1B3E70" transform="translate(311.0625,601.8125)"/>
<path d="M0 0 C3 0.125 3 0.125 4 1.125 C4.04092937 3.45797433 4.04241723 5.79205225 4 8.125 C0.625 8.75 0.625 8.75 -3 9.125 C-3.66 8.465 -4.32 7.805 -5 7.125 C-4.2912041 0.17880017 -4.2912041 0.17880017 0 0 Z " fill="#193B68" transform="translate(478,572.875)"/>
<path d="M0 0 C3.0625 0.1875 3.0625 0.1875 5.0625 2.1875 C4.73278521 5.48464793 4.4398161 6.8101839 2.0625 9.1875 C-1.23464793 8.85778521 -2.5601839 8.5648161 -4.9375 6.1875 C-4.21574268 0.26908996 -4.21574268 0.26908996 0 0 Z " fill="#133765" transform="translate(343.9375,382.8125)"/>
<path d="M0 0 C0.99 0.66 1.98 1.32 3 2 C3.76796489 8.80197477 3.76796489 8.80197477 1.4375 12.4375 C-1.68103694 14.43656214 -4.34186183 14.71860476 -8 15 C-7.67 13.68 -7.34 12.36 -7 11 C-5.35 11 -3.7 11 -2 11 C-1.93941406 10.37351562 -1.87882813 9.74703125 -1.81640625 9.1015625 C-1.73261719 8.28429687 -1.64882813 7.46703125 -1.5625 6.625 C-1.48128906 5.81289063 -1.40007813 5.00078125 -1.31640625 4.1640625 C-1 2 -1 2 0 0 Z " fill="#07C2D1" transform="translate(574,604)"/>
<path d="M0 0 C2.9375 0.1875 2.9375 0.1875 3.9375 1.1875 C4.125 4.125 4.125 4.125 3.9375 7.1875 C3.2775 7.8475 2.6175 8.5075 1.9375 9.1875 C-3.63068182 8.61931818 -3.63068182 8.61931818 -5.0625 7.1875 C-5.25 4.75 -5.25 4.75 -5.0625 2.1875 C-3.0625 0.1875 -3.0625 0.1875 0 0 Z " fill="#19406D" transform="translate(535.0625,602.8125)"/>
<path d="M0 0 C3.0625 0.1875 3.0625 0.1875 5.0625 2.1875 C4.6875 5.3125 4.6875 5.3125 4.0625 8.1875 C1.1875 8.8125 1.1875 8.8125 -1.9375 9.1875 C-3.9375 7.1875 -3.9375 7.1875 -4.125 4.125 C-3.8775 0.2475 -3.8775 0.2475 0 0 Z " fill="#173D67" transform="translate(343.9375,616.8125)"/>
<path d="M0 0 C1 1 1 1 1.125 4 C1 7 1 7 0 8 C-2.9375 8.1875 -2.9375 8.1875 -6 8 C-6.66 7.34 -7.32 6.68 -8 6 C-7.75 2.9375 -7.75 2.9375 -7 0 C-4.31633121 -1.3418344 -2.84719317 -0.73004953 0 0 Z " fill="#1C3E6A" transform="translate(459,609)"/>
<path d="M0 0 C2.5 0.25 2.5 0.25 4.5 2.25 C4.75 4.75 4.75 4.75 4.5 7.25 C2.5 9.25 2.5 9.25 0 9.5 C-2.5 9.25 -2.5 9.25 -4.5 7.25 C-4.75 4.75 -4.75 4.75 -4.5 2.25 C-2.5 0.25 -2.5 0.25 0 0 Z " fill="#1B3C67" transform="translate(327.5,577.75)"/>
<path d="M0 0 C4.55555556 0.55555556 4.55555556 0.55555556 6 2 C6.125 5 6.125 5 6 8 C5 9 5 9 2.0625 9.1875 C-1 9 -1 9 -3 7 C-2.67028521 3.70285207 -2.3773161 2.3773161 0 0 Z " fill="#1E3E67" transform="translate(550,577)"/>
<path d="M0 0 C1 1 1 1 1.1875 3.4375 C1 6 1 6 -1 8 C-3.5 8.25 -3.5 8.25 -6 8 C-6.66 7.34 -7.32 6.68 -8 6 C-7.75 2.9375 -7.75 2.9375 -7 0 C-4.31633121 -1.3418344 -2.84719317 -0.73004953 0 0 Z " fill="#183B62" transform="translate(331,424)"/>
<path d="M0 0 C0.38063221 2.3260857 0.71269945 4.66055264 1 7 C0 8 0 8 -2.9375 8.1875 C-6 8 -6 8 -8 6 C-7.75 2.9375 -7.75 2.9375 -7 0 C-4.3333581 -1.33332095 -2.83319697 -0.67102033 0 0 Z " fill="#123B69" transform="translate(314,397)"/>
<path d="M0 0 C2.5625 0.1875 2.5625 0.1875 4.5625 2.1875 C4.1875 5.3125 4.1875 5.3125 3.5625 8.1875 C1.25 8.875 1.25 8.875 -1.4375 9.1875 C-3.3125 8.0625 -3.3125 8.0625 -4.4375 6.1875 C-3.87661439 0.29820111 -3.87661439 0.29820111 0 0 Z " fill="#163765" transform="translate(568.4375,381.8125)"/>
<path d="M0 0 C3.0625 0.1875 3.0625 0.1875 5.0625 2.1875 C4.50694444 6.74305556 4.50694444 6.74305556 3.0625 8.1875 C0.0625 8.3125 0.0625 8.3125 -2.9375 8.1875 C-3.9375 7.1875 -3.9375 7.1875 -4.0625 4.1875 C-3.89838889 0.24883333 -3.89838889 0.24883333 0 0 Z " fill="#133D6D" transform="translate(534.9375,396.8125)"/>
<path d="M0 0 C3 0.125 3 0.125 4 1.125 C4.1875 3.5625 4.1875 3.5625 4 6.125 C2 8.125 2 8.125 -0.5 8.375 C-3 8.125 -3 8.125 -5 6.125 C-4.27477017 0.17811542 -4.27477017 0.17811542 0 0 Z " fill="#173861" transform="translate(569,605.875)"/>
<path d="M0 0 C2.4375 0.1875 2.4375 0.1875 3.4375 1.1875 C3.625 4.125 3.625 4.125 3.4375 7.1875 C2.7775 7.8475 2.1175 8.5075 1.4375 9.1875 C-3.11805556 8.63194444 -3.11805556 8.63194444 -4.5625 7.1875 C-4.75 4.75 -4.75 4.75 -4.5625 2.1875 C-2.5625 0.1875 -2.5625 0.1875 0 0 Z " fill="#1B3860" transform="translate(552.5625,421.8125)"/>
<path d="M0 0 C3.16115776 1.36983503 3.9927092 1.9890638 6 5 C6.25 8.0625 6.25 8.0625 6 11 C5.34 11.66 4.68 12.32 4 13 C3.34 13 2.68 13 2 13 C1.34 10.36 0.68 7.72 0 5 C-1.65 4.67 -3.3 4.34 -5 4 C-4.360625 3.71125 -3.72125 3.4225 -3.0625 3.125 C-0.84793921 2.17176549 -0.84793921 2.17176549 0 0 Z " fill="#0DAEBF" transform="translate(538,599)"/>
<path d="M0 0 C0.99 0 1.98 0 3 0 C3.33 6.6 3.66 13.2 4 20 C2.68 20 1.36 20 0 20 C0 13.4 0 6.8 0 0 Z " fill="#09CEDA" transform="translate(309,437)"/>
<path d="M0 0 C0.33 0 0.66 0 1 0 C1 7.59 1 15.18 1 23 C0.01 23 -0.98 23 -2 23 C-2.05413245 20.10391407 -2.09373641 17.20884805 -2.125 14.3125 C-2.14175781 13.49587891 -2.15851562 12.67925781 -2.17578125 11.83789062 C-2.2114802 7.42907071 -2.07580814 4.01268424 0 0 Z " fill="#07BCCF" transform="translate(553,434)"/>
<path d="M0 0 C0.66 0.66 1.32 1.32 2 2 C0.68 2.33 -0.64 2.66 -2 3 C-1.67 3.66 -1.34 4.32 -1 5 C-2.65 5.33 -4.3 5.66 -6 6 C-6.33 7.65 -6.66 9.3 -7 11 C-7.66 10.01 -8.32 9.02 -9 8 C-9.99 9.32 -10.98 10.64 -12 12 C-12.35671933 8.16526716 -12.29771416 6.44657125 -10.125 3.1875 C-6.80379339 -0.23138916 -4.69040912 -0.29315057 0 0 Z " fill="#0EAABF" transform="translate(538,392)"/>
<path d="M0 0 C1.98 0.66 3.96 1.32 6 2 C4.7934375 2.7734375 4.7934375 2.7734375 3.5625 3.5625 C0.33552922 6.63205757 0.25103743 8.64868459 0 13 C-1.32 12.34 -2.64 11.68 -4 11 C-4.49230769 4.6 -4.49230769 4.6 -2 1.5625 C-1.34 1.046875 -0.68 0.53125 0 0 Z " fill="#0CC2D0" transform="translate(564,378)"/>
<path d="M0 0 C0.99 0 1.98 0 3 0 C3.309375 1.423125 3.309375 1.423125 3.625 2.875 C4.70833333 6.29166667 4.70833333 6.29166667 8.125 7.375 C9.07375 7.58125 10.0225 7.7875 11 8 C11 8.99 11 9.98 11 11 C3.61947973 11.48396854 3.61947973 11.48396854 1 9.4375 C-0.32761013 6.2014503 -0.19966912 3.46093134 0 0 Z " fill="#06C3D9" transform="translate(544,579)"/>
<path d="M0 0 C0.28875 0.61875 0.5775 1.2375 0.875 1.875 C1.93720042 4.13325765 1.93720042 4.13325765 4 6 C6.57061311 6.64767793 6.57061311 6.64767793 9 7 C9.33 7.99 9.66 8.98 10 10 C9 11 9 11 6.25 11.3125 C2.32316275 10.93491949 0.82653264 9.66026601 -2 7 C-1.34 4.69 -0.68 2.38 0 0 Z " fill="#04C8D9" transform="translate(338,619)"/>
<path d="M0 0 C2.62187494 1.04874998 3.79371361 1.64931313 5.25 4.125 C5.4975 4.74375 5.745 5.3625 6 6 C9.62885324 6.15149298 9.62885324 6.15149298 13 5 C12.34 6.32 11.68 7.64 11 9 C9.68 8.67 8.36 8.34 7 8 C6.67 8.99 6.34 9.98 6 11 C3.59071265 10.03628506 2.23992991 9.34789837 0.75 7.1875 C-0.11081611 4.67678635 -0.14647297 2.63651351 0 0 Z " fill="#0AB1C7" transform="translate(319,425)"/>
<path d="M0 0 C0.309375 0.928125 0.309375 0.928125 0.625 1.875 C2.54775888 4.84653645 4.66594527 5.13024659 8 6 C7.67 7.65 7.34 9.3 7 11 C1.6 10.4 1.6 10.4 -0.875 8.75 C-2.41076449 6.36103301 -2.35706738 4.78512559 -2 2 C-1.34 1.34 -0.68 0.68 0 0 Z " fill="#11BCCE" transform="translate(529,399)"/>
<path d="M0 0 C2.57409193 2.30780656 2.96739779 3.67397791 3.3125 7.125 C3 10 3 10 1 12 C0.319375 10.329375 0.319375 10.329375 -0.375 8.625 C-2.31538753 4.29644319 -3.83676109 2.94284483 -8 1 C-4.97923697 -0.00692101 -3.1408885 -0.39261106 0 0 Z " fill="#09BBCC" transform="translate(541,394)"/>
<path d="M0 0 C0.66 0.66 1.32 1.32 2 2 C-0.16264012 5.98381075 -2.71211176 8.88983545 -6 12 C-6.99 11.67 -7.98 11.34 -9 11 C-7.59155282 7.78475695 -5.89655214 5.67816132 -3.375 3.25 C-2.74335937 2.63640625 -2.11171875 2.0228125 -1.4609375 1.390625 C-0.73777344 0.70226562 -0.73777344 0.70226562 0 0 Z " fill="#19325D" transform="translate(771,751)"/>
<path d="M0 0 C0 0.99 0 1.98 0 3 C1.32 3.33 2.64 3.66 4 4 C2.35 4.33 0.7 4.66 -1 5 C-1.33 6.65 -1.66 8.3 -2 10 C-3.65 10.33 -5.3 10.66 -7 11 C-7.3125 8.3125 -7.3125 8.3125 -7 5 C-2.86956522 0 -2.86956522 0 0 0 Z " fill="#0DB9CA" transform="translate(342,613)"/>
<path d="M0 0 C1.32 0.33 2.64 0.66 4 1 C4 3.73857163 3.68917303 5.96036739 3.125 8.625 C2.96257812 9.42164063 2.80015625 10.21828125 2.6328125 11.0390625 C2.42398437 11.68617188 2.21515625 12.33328125 2 13 C1.01 13.495 1.01 13.495 0 14 C-0.06058594 13.30132812 -0.12117188 12.60265625 -0.18359375 11.8828125 C-0.26738281 10.97273438 -0.35117187 10.06265625 -0.4375 9.125 C-0.51871094 8.22007812 -0.59992188 7.31515625 -0.68359375 6.3828125 C-0.86989285 3.98889139 -0.86989285 3.98889139 -2 2 C-1.34 2 -0.68 2 0 2 C0 1.34 0 0.68 0 0 Z " fill="#0ED1DB" transform="translate(309,406)"/>
<path d="M0 0 C0.33 0 0.66 0 1 0 C0.979375 0.9075 0.95875 1.815 0.9375 2.75 C0.9889755 5.42672588 1.2215017 7.46988052 2 10 C-1.75 13 -1.75 13 -4 13 C-3.40895235 8.15340923 -2.02055843 4.39251833 0 0 Z " fill="#2A4269" transform="translate(838,645)"/>
<path d="M0 0 C1.32 0.33 2.64 0.66 4 1 C1.69 3.97 -0.62 6.94 -3 10 C-3.99 9.34 -4.98 8.68 -6 8 C-4.02 5.36 -2.04 2.72 0 0 Z " fill="#233E6E" transform="translate(807,721)"/>
<path d="M0 0 C6.52307692 0.61538462 6.52307692 0.61538462 8.9375 2.5625 C9.288125 3.036875 9.63875 3.51125 10 4 C9.01 4.99 8.02 5.98 7 7 C6.67 6.34 6.34 5.68 6 5 C5.34 5 4.68 5 4 5 C4 4.01 4 3.02 4 2 C2.68 2 1.36 2 0 2 C0 1.34 0 0.68 0 0 Z " fill="#0DADC2" transform="translate(308,392)"/>
<path d="M0 0 C0.66 1.32 1.32 2.64 2 4 C-0.65654657 7.73884332 -2.58110387 9.64978174 -7 11 C-4.84921278 7.14341602 -2.76544722 3.45680903 0 0 Z " fill="#274168" transform="translate(801,713)"/>
<path d="M0 0 C1.32 0 2.64 0 4 0 C4 2.31 4 4.62 4 7 C2.02 7.99 2.02 7.99 0 9 C0 6.03 0 3.06 0 0 Z " fill="#10CADD" transform="translate(550,549)"/>
<path d="M0 0 C3.78125 0.7265625 3.78125 0.7265625 5.75 3.1875 C7.15826984 6.35610715 7.23929224 8.57014455 7 12 C3.95950199 8.35140239 2.03481238 4.2555467 0 0 Z " fill="#19C1C7" transform="translate(790,346)"/>
<path d="M0 0 C4.875 1.875 4.875 1.875 6 3 C6.04080783 4.99958364 6.04254356 7.00045254 6 9 C5.01 9.495 5.01 9.495 4 10 C3.67 8.68 3.34 7.36 3 6 C2.34 6.66 1.68 7.32 1 8 C0.67 5.36 0.34 2.72 0 0 Z " fill="#0AB4CA" transform="translate(459,607)"/>
<path d="M0 0 C0 3 0 3 -2.25 5.4375 C-3.1575 6.283125 -4.065 7.12875 -5 8 C-6.1446875 9.1446875 -6.1446875 9.1446875 -7.3125 10.3125 C-7.869375 10.869375 -8.42625 11.42625 -9 12 C-9.66 11.67 -10.32 11.34 -11 11 C-7.37 7.37 -3.74 3.74 0 0 Z " fill="#00BCC3" transform="translate(278,272)"/>
<path d="M0 0 C0.66 0 1.32 0 2 0 C2.20496094 0.84304688 2.40992188 1.68609375 2.62109375 2.5546875 C2.89050781 3.65039062 3.15992188 4.74609375 3.4375 5.875 C3.70433594 6.96554687 3.97117188 8.05609375 4.24609375 9.1796875 C4.8786478 11.92484721 4.8786478 11.92484721 6 14 C5.72057545 15.67654729 5.39171753 17.34608154 5 19 C2.8172154 15.31773729 2.1441596 11.40189215 1.375 7.25 C1.2409375 6.55261719 1.106875 5.85523438 0.96875 5.13671875 C0.64056736 3.42548068 0.31956498 1.71286829 0 0 Z " fill="#31C5C9" transform="translate(183,583)"/>
<path d="M0 0 C-1 3 -1 3 -3.015625 4.30078125 C-5.28836134 5.89692302 -5.28836134 5.89692302 -5.609375 8.91796875 C-5.65578125 9.99691406 -5.7021875 11.07585937 -5.75 12.1875 C-5.80671875 13.27417969 -5.8634375 14.36085938 -5.921875 15.48046875 C-5.94765625 16.31191406 -5.9734375 17.14335937 -6 18 C-6.33 18 -6.66 18 -7 18 C-7.13526139 15.75165504 -7.23210804 13.50097486 -7.3125 11.25 C-7.39951172 9.37054688 -7.39951172 9.37054688 -7.48828125 7.453125 C-7 4 -7 4 -4.60546875 1.546875 C-2 0 -2 0 0 0 Z " fill="#223C6A" transform="translate(578,391)"/>
<path d="M0 0 C1.134375 0.020625 2.26875 0.04125 3.4375 0.0625 C3.1075 1.0525 2.7775 2.0425 2.4375 3.0625 C0.766875 3.2790625 0.766875 3.2790625 -0.9375 3.5 C-4.38392047 3.84622035 -4.38392047 3.84622035 -6.5625 5.0625 C-4.14811644 0.07277397 -4.14811644 0.07277397 0 0 Z " fill="#06C2DA" transform="translate(551.5625,417.9375)"/>
<path d="M0 0 C0.99 0 1.98 0 3 0 C3 2.97 3 5.94 3 9 C2.01 9 1.02 9 0 9 C0 6.03 0 3.06 0 0 Z " fill="#0EC8D7" transform="translate(326,549)"/>
<path d="M0 0 C0.33 0.99 0.66 1.98 1 3 C-1.33333333 5.33333333 -3.66666667 7.66666667 -6 10 C-5.8125 6.6875 -5.8125 6.6875 -5 3 C-2.4375 1.0625 -2.4375 1.0625 0 0 Z " fill="#1A2F5C" transform="translate(832,667)"/>
<path d="M0 0 C2.76262553 0.3810518 3.84143894 0.83597132 5.8125 2.875 C6.204375 3.57625 6.59625 4.2775 7 5 C6.67 5.99 6.34 6.98 6 8 C1.125 3.375 1.125 3.375 0 0 Z " fill="#16C1C8" transform="translate(240,709)"/>
<path d="M0 0 C1.32 0 2.64 0 4 0 C4 2.97 4 5.94 4 9 C1.43135272 7.71567636 1.053461 6.63365249 0 4 C0 2.68 0 1.36 0 0 Z " fill="#06B7CD" transform="translate(342,549)"/>
<path d="M0 0 C0.66 0 1.32 0 2 0 C1.91253716 1.43861294 1.80434652 2.87597508 1.6875 4.3125 C1.62949219 5.11300781 1.57148438 5.91351563 1.51171875 6.73828125 C0.91793306 9.36272334 0.04219706 10.30820672 -2 12 C-1 3.42857143 -1 3.42857143 0 0 Z " fill="#344A6F" transform="translate(159,417)"/>
<path d="M0 0 C3.57104439 1.87949705 5.54744301 3.17053157 7 7 C4 7 4 7 1.8125 5.1875 C0 3 0 3 0 0 Z " fill="#1BC4CE" transform="translate(728,269)"/>
<path d="M0 0 C0 1.98 0 3.96 0 6 C-0.66 5.34 -1.32 4.68 -2 4 C-2.99 7.465 -2.99 7.465 -4 11 C-4.33 11 -4.66 11 -5 11 C-5.36637589 4.64948454 -5.36637589 4.64948454 -3.625 1.5625 C-2 0 -2 0 0 0 Z " fill="#0BB3C7" transform="translate(474,570)"/>
<path d="M0 0 C1.65 0 3.3 0 5 0 C5 0.99 5 1.98 5 3 C2.69 3.66 0.38 4.32 -2 5 C-2.33 4.01 -2.66 3.02 -3 2 C-2.01 2 -1.02 2 0 2 C0 1.34 0 0.68 0 0 Z " fill="#04CEDC" transform="translate(342,379)"/>
<path d="M0 0 C6.52307692 0.49230769 6.52307692 0.49230769 8.9375 3.0625 C9.288125 3.701875 9.63875 4.34125 10 5 C8.35 4.67 6.7 4.34 5 4 C5 3.34 5 2.68 5 2 C3.35 2 1.7 2 0 2 C0 1.34 0 0.68 0 0 Z " fill="#09BAC7" transform="translate(566,377)"/>
<path d="M0 0 C-0.8125 1.9375 -0.8125 1.9375 -2 4 C-2.99 4.33 -3.98 4.66 -5 5 C-5 4.01 -5 3.02 -5 2 C-6.65 2 -8.3 2 -10 2 C-10 1.67 -10 1.34 -10 1 C-6.57703036 0.25989846 -3.49869895 0 0 0 Z " fill="#0BAEC8" transform="translate(560,585)"/>
<path d="M0 0 C1.35439668 2.70879335 1.06501451 5.00933268 1 8 C0.34 6.68 -0.32 5.36 -1 4 C-1.66 4 -2.32 4 -3 4 C-3.33 4.99 -3.66 5.98 -4 7 C-4 5.02 -4 3.04 -4 1 C-2 0 -2 0 0 0 Z " fill="#0BAAC1" transform="translate(486,572)"/>
<path d="M0 0 C1.4540625 0.0309375 1.4540625 0.0309375 2.9375 0.0625 C2.298125 0.289375 1.65875 0.51625 1 0.75 C-1.33443661 1.91500896 -1.33443661 1.91500896 -1.8125 4.6875 C-1.895 5.47125 -1.9775 6.255 -2.0625 7.0625 C-3.0525 7.0625 -4.0425 7.0625 -5.0625 7.0625 C-4.02286585 0.0820993 -4.02286585 0.0820993 0 0 Z " fill="#1B4772" transform="translate(478.0625,572.9375)"/>
<path d="M0 0 C0.99 0 1.98 0 3 0 C3 2.64 3 5.28 3 8 C2.01 7.67 1.02 7.34 0 7 C0 4.69 0 2.38 0 0 Z " fill="#08D5E1" transform="translate(309,550)"/>
<path d="M0 0 C0.33 0 0.66 0 1 0 C1.5497272 5.63470383 -0.04952165 8.38987758 -3 13 C-4 11 -4 11 -3.22265625 8.3984375 C-2.83980469 7.40070313 -2.45695313 6.40296875 -2.0625 5.375 C-1.68222656 4.37210937 -1.30195313 3.36921875 -0.91015625 2.3359375 C-0.60980469 1.56507813 -0.30945313 0.79421875 0 0 Z " fill="#344C71" transform="translate(171,381)"/>
<path d="M0 0 C0.66 0.33 1.32 0.66 2 1 C-1.96 4.465 -1.96 4.465 -6 8 C-6.66 7.67 -7.32 7.34 -8 7 C-5.36 4.69 -2.72 2.38 0 0 Z " fill="#29466B" transform="translate(753,769)"/>
<path d="M0 0 C-1.26941497 3.91402949 -2.51167694 5.79072873 -6 8 C-6.33 7.01 -6.66 6.02 -7 5 C-2.25 0 -2.25 0 0 0 Z " fill="#27416D" transform="translate(783,754)"/>
<path d="M0 0 C0 1.98 0 3.96 0 6 C-0.66 5.01 -1.32 4.02 -2 3 C-2.99 4.32 -3.98 5.64 -5 7 C-5 5.02 -5 3.04 -5 1 C-2 0 -2 0 0 0 Z " fill="#139DB3" transform="translate(531,397)"/>
<path d="M0 0 C2.0625 0.4375 2.0625 0.4375 4 1 C2.71937515 2.7074998 1.38232443 4.37373596 0 6 C-0.66 6 -1.32 6 -2 6 C-1.125 1.125 -1.125 1.125 0 0 Z " fill="#14406D" transform="translate(341,383)"/>
<path d="M0 0 C0.33 0 0.66 0 1 0 C1 1.98 1 3.96 1 6 C0.01 6.33 -0.98 6.66 -2 7 C-2 7.66 -2 8.32 -2 9 C-2.66 8.67 -3.32 8.34 -4 8 C-2.68 5.36 -1.36 2.72 0 0 Z " fill="#234065" transform="translate(822,679)"/>
<path d="M0 0 C0.33 0 0.66 0 1 0 C0.67 2.31 0.34 4.62 0 7 C-0.99 7 -1.98 7 -3 7 C-3 5.68 -3 4.36 -3 3 C-2.01 3.33 -1.02 3.66 0 4 C0 2.68 0 1.36 0 0 Z " fill="#0CC7D3" transform="translate(318,400)"/>
<path d="M0 0 C5.75 3.75 5.75 3.75 8 6 C8 6.66 8 7.32 8 8 C4.63820226 6.55922954 2.40843732 4.75249979 0 2 C0 1.34 0 0.68 0 0 Z " fill="#1A315D" transform="translate(759,260)"/>
<path d="M0 0 C0.66 0 1.32 0 2 0 C2 1.65 2 3.3 2 5 C0.35 5 -1.3 5 -3 5 C-1.125 1.125 -1.125 1.125 0 0 Z " fill="#1C3066" transform="translate(827,687)"/>
</svg>
